/* XPM */
static const char *addTreeElement_xpm[]={
"22 22 114 2",
".t c None",
"Qt c None",
".P c #d46c38",
"#. c #c64301",
".1 c #c53f00",
".j c #000000",
".2 c #643500",
"#V c #747885",
".d c #c1c5d3",
".c c #c4c8d5",
".u c #c6c6bf",
"#S c #c86441",
".b c #c9ceda",
".G c #cac0af",
"#o c #cdb094",
".# c #cdd1dd",
".a c #cfd3de",
"#U c #d2d6e0",
"#w c #d3a074",
"#h c #d3aa81",
"#R c #d89075",
"#L c #d98461",
"#J c #dc6b2a",
"#g c #deb4a4",
".0 c #df9149",
"#D c #e1ad97",
"#f c #e38517",
".9 c #e38e13",
"#m c #e4baa7",
"#M c #e68543",
".Z c #e7a148",
"#u c #e7cac0",
"#K c #e85c03",
"#G c #e8772b",
"#I c #e8bca5",
"#l c #ea870d",
"#t c #eb7c0c",
".Y c #eca743",
"#A c #ed770b",
"#N c #eda87d",
"#n c #edeff5",
".i c #edeff6",
".L c #eea55b",
"#z c #f0740b",
"#E c #f09e64",
".m c #f0f1f8",
"#C c #f17300",
"#H c #f1c3a9",
"#Q c #f1e8e8",
"#v c #f1f2f8",
".h c #f1f3f8",
".S c #f2b33e",
"#F c #f36803",
".O c #f3efee",
".l c #f3f5f9",
"#a c #f4a717",
".x c #f5aa46",
"#T c #f5f6fa",
".g c #f5f7fa",
".X c #f6cb46",
"#P c #f6f8fa",
"#p c #f7900c",
".I c #f7b15a",
".C c #f7c52a",
".M c #f7e5da",
".N c #f7ede7",
".o c #f7f8fb",
"#i c #f89e0c",
".D c #f8d4b6",
".k c #f8f9fb",
"#x c #f98100",
".w c #f9ae46",
".r c #f9c08d",
".s c #f9fafc",
".B c #faca21",
".z c #fafbfc",
"#B c #fb8700",
".T c #fbbb43",
".q c #fbc28d",
".U c #fbd341",
".A c #fbd9b6",
".n c #fbfcfd",
"#y c #fc8200",
"#e c #fcc403",
"## c #fcd3ac",
"#O c #fcf2ed",
".3 c #fdbc36",
".8 c #fde40a",
".H c #fdecdc",
".f c #fdfefe",
".R c #febb52",
"#b c #fed201",
".K c #fef41f",
".J c #fef51c",
".y c #fef7f1",
".v c #fef8f1",
"#r c #ffa100",
"#q c #ffa300",
"#s c #ffa400",
".Q c #ffb45f",
"#k c #ffbb00",
"#j c #ffbd00",
"#d c #ffd400",
"#c c #ffd600",
".4 c #ffef11",
".7 c #fff100",
".6 c #fff200",
".5 c #fff203",
".F c #fff9f3",
".V c #fffe02",
".W c #fffe05",
".E c #fffefd",
".p c #fffffe",
".e c #ffffff",
"Qt.#.a.a.a.a.a.a.a.a.a.a.a.a.a.a.a.b.c.dQtQt",
"Qt.a.e.e.e.e.e.e.e.e.e.e.e.e.e.e.f.g.h.iQtQt",
"Qt.a.e.e.e.e.e.j.e.e.e.e.e.e.e.e.f.k.l.mQtQt",
"Qt.a.e.e.e.e.e.e.e.e.e.e.e.e.e.e.e.n.o.lQtQt",
"Qt.a.e.e.e.e.e.j.e.e.e.e.e.e.e.e.e.n.k.lQtQt",
"Qt.a.e.e.e.e.e.e.e.e.e.e.e.p.q.r.p.n.s.g.tQt",
"Qt.a.e.u.u.u.u.u.u.u.u.u.e.v.w.x.y.f.z.o.tQt",
"Qt.a.e.u.e.e.e.e.e.e.e.u.e.A.B.C.D.f.n.o.tQt",
"Qt.a.e.u.e.e.e.j.e.E.F.G.H.I.J.K.L.M.N.O.PQt",
"Qt.a.e.u.e.e.e.j.e.Q.R.S.T.U.V.W.X.Y.Z.0.1Qt",
"Qt.a.e.u.e.j.j.j.j.2.3.4.5.6.6.6.6.7.8.9#.Qt",
"Qt.a.e.u.e.e.e.j.e.e###a#b#c#c#c#d#e#f#g.tQt",
"Qt.a.e.u.e.e.e.j.e.e.p#h#i#j#j#j#k#l#m#n.tQt",
"Qt.a.e.u.e.e.e.e.e.e.e#o#p#q#r#s#s#t#u#v.tQt",
"Qt.a.e.u.u.u.u.u.u.u.u#w#x#y#z#A#B#C#D#v.tQt",
"Qt.a.e.e.e.e.e.e.e.e.e#E#F#G#H#I#J#K#L.h.tQt",
"Qt.a.e.e.e.e.e.j.e.e.e#M#N#O.e#P#Q#R#S.h.tQt",
"Qt.a.e.e.e.e.e.e.e.e.e.e.e.e.e#P#T.l.h.hQtQt",
"Qt.a.e.e.e.e.e.j.e.e.e.e.e.e.e#P.g.l.h.hQtQt",
"Qt.a.e.e.e.e.e.e.e.e.e.e.g.g.g#T.l.h.h#vQtQt",
"Qt.a.e.e.e.e.e.e.e.e.e.e.n.n.n.s.s#P.g.lQtQt",
"Qt#U#V#V#V#V#V#V#V#V#V#V#V#V#V#V#V#V#V#VQtQt"};
