/* XPM */
static const char *changeProperty_xpm[]={
"22 22 160 2",
"#r c None",
".i c None",
"#M c #303030",
"ah c #585858",
"#8 c #696c7a",
"#X c #6a6d7b",
"#K c #737784",
".4 c #747885",
".V c #8c91a3",
".N c #916d70",
".h c #9b1f00",
"an c #a07362",
"ai c #a17c6a",
"aj c #a38c82",
"ao c #a9715f",
".d c #b2b7c8",
"ag c #b65d3a",
"ab c #ba6441",
".2 c #c0938a",
"ak c #c18167",
"#g c #c18474",
".c c #c1c5d3",
".g c #c36434",
"#x c #c3785d",
".b c #c4c8d5",
".T c #c55220",
".U c #c9cdda",
".a c #c9ceda",
".3 c #ccd0dc",
"#3 c #cdb1b0",
"Qt c #cdd1dd",
"#. c #cf5a1b",
"#W c #cfd0da",
"#7 c #cfd1da",
".# c #cfd3de",
"#6 c #d0d2db",
"ad c #d1d3dc",
".G c #d26d40",
"#S c #d28c69",
"aD c #d2d6e0",
"#5 c #d3d5dd",
"am c #d3d5de",
"ac c #d4d6de",
"#a c #d4d7e3",
"at c #d5afa9",
"## c #d5d9e3",
"#V c #d6d8e0",
"#4 c #d7d9e0",
"al c #d9dbe1",
"aq c #d9dbe3",
"#h c #d9dce6",
"ap c #dbdde2",
"#n c #dc722a",
"#F c #de782b",
"#G c #ded1d4",
"#o c #dedadf",
".e c #df8921",
".f c #df9960",
"#q c #dfe2eb",
"ar c #e0e2ea",
"#J c #e0e3eb",
"#p c #e0e3ec",
"#z c #e1e4ed",
"ae c #e2b489",
"ay c #e3e6ee",
".A c #e45a09",
"#2 c #e48e42",
"#U c #e4e7ee",
"av c #e5e7ec",
"#I c #e5e7f0",
"#y c #e6e8f0",
"au c #e7e9ed",
"#H c #e7e9f1",
".o c #e8ae38",
"aw c #e8eaf1",
"ax c #eaedf3",
"#T c #ebedf4",
"aC c #eef0f7",
".B c #f0b24e",
".n c #f0f1f8",
"aB c #f0f2f8",
"#9 c #f1c38e",
".v c #f1d4bb",
"aA c #f1f3f8",
".M c #f2660c",
".O c #f2b15f",
".m c #f3f5f9",
"#Y c #f5ca89",
"#A c #f5d1ac",
"as c #f5f7fa",
"#L c #f6f8fa",
"#b c #f7b51e",
".X c #f7b708",
".5 c #f7c680",
".H c #f7e9dc",
".u c #f7f8fb",
".1 c #f87a1a",
".I c #f8c201",
".w c #f8c600",
"aa c #f8c989",
"#N c #f8cb71",
"af c #f8d6b5",
".l c #f8f9fb",
"#s c #f9c139",
"#i c #f9d2a0",
"az c #f9fafc",
".t c #fbfcfd",
".W c #fcf6ee",
"#B c #fdde45",
"#j c #fde22f",
".k c #fdfefe",
".F c #fe740e",
".S c #fe8015",
".z c #fe8805",
".s c #fe8d2f",
".L c #fe9008",
".9 c #fe9324",
"#f c #fe932f",
".y c #fe9e00",
".E c #fe9e01",
".0 c #fe9f15",
".r c #fea10a",
".q c #fea200",
"#m c #fea536",
"#w c #fea545",
".D c #fea702",
".K c #fea705",
".R c #feab0a",
"#e c #feb024",
".Z c #feb111",
".Q c #feb20b",
".8 c #feb518",
"#E c #feb84b",
"#R c #feb85e",
"#d c #febb22",
".x c #febf00",
"#l c #febf2a",
"#v c #febf36",
".7 c #fec21a",
"#u c #fec537",
"#D c #fec941",
".J c #fecb03",
"#Q c #fecb4e",
"#1 c #fecb61",
"#k c #fecf2f",
"#P c #fed151",
"#0 c #fed45a",
".Y c #fed510",
"#C c #fed849",
".p c #fedb00",
"#c c #fedc25",
".C c #fedf00",
"a# c #fee1a6",
".P c #fee207",
"#Z c #fee277",
".6 c #fee71a",
"#t c #fee741",
"a. c #fee7c9",
"#O c #feef62",
".j c #ffffff",
"Qt.#.#.#.#.#.#.a.b.c.d.e.f.g.h.i.i.i.i.i.i.i",
".#.j.j.j.j.j.j.k.l.m.n.o.p.q.r.s.i.i.i.i.i.i",
".#.j.j.j.j.j.j.j.t.u.v.w.x.y.z.A.i.i.i.i.i.i",
".#.j.j.j.j.j.j.j.t.l.B.C.D.E.F.G.i.i.i.i.i.i",
".#.j.j.j.j.j.j.j.t.H.I.J.K.L.M.N.i.i.i.i.i.i",
".#.j.j.j.j.j.j.j.k.O.P.Q.R.S.T.U.V.i.i.i.i.i",
".#.j.j.j.j.j.j.j.W.X.Y.Z.0.1.2.3.4.i.i.i.i.i",
".#.j.j.j.j.j.j.j.5.6.7.8.9#.###a.4.i.i.i.i.i",
".#.j.j.j.j.j.j.k#b#c#d#e#f#g#h#h.4.i.i.i.i.i",
".#.j.j.j.j.j.j#i#j#k#l#m#n#o#p#q.4#r#r#r#r#r",
".#.j.j.j.j.j.k#s#t#u#v#w#x#y#z#z.4#r#r#r#r#r",
".#.j.k.k.k.k#A#B#C#D#E#F#G#H#I#J#K#r#r#r#r#r",
".#.j#L#M#M#M#N#O#P#Q#R#S#T#U#V#W#X#r#r#r#r#r",
".#.j.u#M.u.u#Y#Z#0#1#2#3#4#5#6#7#8#r#r#r#r#r",
".#.j.u#M.u.u#9a.a#aaab#V#Vacad#6#8#r#r#r#r#r",
".#.j.u#M.u.uaea.afagah#V#Vacad#6#8#r#r#r#r#r",
".#.j.u#M.u.uaiajakalah#V#Vacadam#X#r#r#r#r#r",
".#.j.u#M.u.uanaoapal#M#V#Vaqar#H#K#r#r#r#r#r",
".#.jas#Masasatauavav#Mawawax#H#y.4#r#r#r#r#r",
".#.jas#M#M#M#M#M#M#M#Maxax#H#yay.4.i.i.i.i.i",
".#.jas.tazazaz#Las.maAaBaC#Tax#H.4.i.i.i.i.i",
"aD.4.4.4.4.4.4.4.4.4.4.4.4.4.4.4.4.i.i.i.i.i"};
