/* XPM */
static const char *editpaste_xpm[]={
"22 22 117 2",
"Qt c None",
".c c None",
".i c #d6912b",
".b c #8888a1",
".# c #8989a1",
".j c #d8922b",
".h c #7d7d97",
".d c #7e7e98",
".a c #8989a1",
".k c #d9932b",
".q c #997e68",
".l c #9a7f69",
".r c #cc892a",
"#X c #7b4924",
"#U c #7b4925",
".C c #848380",
".B c #858481",
".x c #8a8687",
".u c #8b8788",
".p c #8b8ba2",
".m c #8b8ba4",
"#Y c #905620",
"#R c #915923",
"#N c #915a25",
"#H c #926129",
"#B c #92642c",
"#s c #93652e",
"#k c #936730",
"#. c #946832",
".3 c #956a34",
".g c #9797ac",
".e c #9898ad",
".N c #9c9cb6",
".0 c #9d7136",
".U c #a77a38",
".O c #b1833b",
".K c #bb8d3d",
".v c #c4c4d0",
".J c #c6903c",
".F c #c69640",
".H c #c8c37f",
".9 c #c9c9da",
".E c #cc943a",
".z c #cc973c",
"#j c #ccccdb",
"#i c #cecedd",
".M c #d0d0df",
"#r c #d2d2e0",
".Z c #d3d3e1",
"#q c #d5d5e4",
".8 c #d7d7e5",
"#A c #d8d8e6",
"#h c #dadae7",
"#z c #dbdbe8",
"#y c #dcdce9",
"#V c #de8c13",
"#G c #dedeeb",
"#x c #e0e0ec",
"#M c #e1e1ed",
".w c #e3e3e9",
"#Q c #e4e4ee",
"#W c #e59111",
"#F c #e5e5ef",
".7 c #e6e6f0",
"#S c #e79719",
"#w c #e7e7f0",
".y c #e8c662",
".s c #e8c66b",
"#L c #e8e8f1",
"#O c #e99d20",
".S c #e9e9f2",
"#K c #eaeaf3",
"#I c #eba328",
".T c #ebebf4",
"#D c #eca92f",
".Y c #ececf4",
"#C c #edb636",
".o c #ededf0",
"#v c #eeaf37",
"#u c #eeb43a",
"#g c #eeeef5",
"#t c #efc744",
".2 c #efeff6",
"#o c #f0b53f",
"#n c #f0ba41",
"#J c #f0f0f7",
"#m c #f1cc4c",
"#l c #f1ce4d",
".6 c #f1f1f8",
"#d c #f2bb46",
"#c c #f2bd47",
"#b c #f2c14a",
"#a c #f2cb4f",
"#f c #f2f2f9",
"## c #f3d454",
"#p c #f3f3f9",
".4 c #f4da5c",
".t c #f4e389",
"#P c #f4f4fa",
".n c #f5f5f7",
".R c #f5f5fc",
".1 c #f6df64",
"#E c #f6f6fd",
".V c #f8e56c",
".X c #f8f8fe",
".P c #f9eb74",
".Q c #f9f9fe",
"#T c #fafaff",
".L c #fbf07c",
".W c #fcfcff",
".I c #fdef7e",
".G c #fdf683",
".5 c #fdfdff",
".D c #fef989",
".A c #fefc8b",
"#e c #fefeff",
".f c #ffffff",
"QtQtQtQtQt.#.a.a.a.a.bQtQtQtQtQt.c.c.c.c.c.c",
"QtQtQtQt.d.e.f.f.f.f.g.hQtQtQt.c.c.c.c.c.c.c",
".i.j.k.l.m.f.n.n.n.n.o.p.q.k.j.c.c.c.c.c.c.c",
".r.s.t.u.v.w.w.w.w.w.w.v.x.t.y.r.c.c.c.c.c.c",
".z.A.A.B.v.v.v.v.v.v.v.v.C.A.D.E.c.c.c.c.c.c",
".F.G.G.H.B.B.B.B.B.B.B.B.H.G.I.J.c.c.c.c.c.c",
".K.L.L.L.L.L.L.L.L.M.M.M.M.M.M.M.M.N.c.c.c.c",
".O.P.P.P.P.P.P.P.P.M.f.f.f.Q.R.S.T.M.N.c.c.c",
".U.V.V.V.V.V.V.V.V.M.f.f.f.W.X.Y.T.M.Z.N.c.c",
".0.1.1.1.1.1.1.1.1.M.f.f.f.W.Q.2.T.N.N.N.N.c",
".3.4.4.4.4.4.4.4.4.M.f.f.f.5.Q.6.T.7.8.9.N.c",
"#.#######a#b#c#d#d.M.f.f.f#e.W#f#g#h#i#j.N.c",
"#k#l#m#n#o#o#o#o#o.M.f.f.f.f.W#p.T#q#r.M.N.c",
"#s#t#u#v#v#v#v#v#v.M.f.f#e.Q.R#w#x#y#z#A.N.c",
"#B#C#D#D#D#D#D#D#D.M.f#e.5#E#g.7#F#x#G#y.N.c",
"#H#I#I#I#I#I#I#I#I.M.f.f.Q#J#g#K#L#F#M#x.N.c",
"#N#O#O#O#O#O#O#O#O.M.f.5#P.6.2.T#K.7#Q#x.N.c",
"#R#S#S#S#S#S#S#S#S.M.f#T#p.6.2.T#K#w#F#M.N.c",
"#U#V#W#W#W#W#W#W#W.M.f.R#p.6#J#g#K#w#F#M.N.c",
".c#X#Y#Y#Y#Y#Y#Y#Y.M.f#p#f#J.2.Y#K.7#F#M.N.c",
".c.c.c.c.c.c.c.c.c.M.W#p#p.6.2.T#K#w#F#M.N.c",
".c.c.c.c.c.c.c.c.c.N.N.N.N.N.N.N.N.N.N.N.N.c"};
