/* XPM */
static const char *editentrysubtreecolor_xpm[]={
"22 22 7 1",
". c None",
"d c #0000c0",
"b c #00c000",
"# c #00c0c0",
"e c #800080",
"a c #c00000",
"c c #ffff00",
"......................",
"......................",
"..#####...............",
"....#.................",
"....#.................",
"....#...aaaaa.........",
"....#.....a...........",
"..........a...........",
"..........a...bbbbb...",
"..........a.....b.....",
"................b.....",
"................b.....",
"..ccccc.........b.....",
"....c.................",
"....c...ddddd.........",
"....c.....d...........",
"....c.....d...eeeee...",
"..........d.....e.....",
"..........d.....e.....",
"................e.....",
"................e.....",
"......................"};
