/* XPM */
static const char *editentrycolor_xpm[]={
"22 22 4 1",
"a c None",
". c None",
"# c #00c0c0",
"b c #800080",
"......................",
"......................",
"..#################...",
"..#################a..",
".........bba..........",
"..aaaaaaabbaaaaaaa....",
"...aaaaaabbaaaaaaaa...",
"...aaaaaabbaaaaaaaa...",
"....a.aaabbaaaaaaaa...",
"...aaaaaabbaaaaaaaa...",
"..aaaaaaabbaaaaaaa....",
"..aaaaaaabbaaaaaaa....",
"..a..aaaabbaaa..aa....",
".a.aaaaaabbaaaaaaa....",
".a.aaaaaabbaaaaaaa....",
"a..aaaaaabbaaaaaaa....",
"aaaaaaaaabbaa..aa.....",
"...aaaaaabbaaaaaaa....",
"...aaaaaabbaaaaaaa....",
"...aaaaaabbaaaaaaa....",
"......aa.aaaa....a....",
"..........aa.a..aa...."};
