/* XPM */
static const char *find_xpm[]={
"24 24 130 2",
".D c None",
"Qt c None",
".j c #000000",
".i c #080808",
".h c #101010",
".u c #141414",
".g c #181818",
".f c #212121",
".E c #232300",
".e c #292929",
"#2 c #2b2b2b",
".L c #303030",
".d c #313131",
".A c #323232",
".x c #393939",
".c c #3a3a3a",
".y c #3e3e3e",
".w c #3f3f3f",
".b c #424242",
".q c #464646",
".a c #4a4a4a",
".k c #4c4c4c",
".# c #535353",
"#1 c #6b6b6b",
".K c #857f7a",
".p c #989898",
"#0 c #9d9d9d",
".Q c #a09b97",
".o c #b4b4b4",
".J c #b8b1a9",
"#Z c #b9b9b9",
".W c #bbb2ab",
".3 c #c6b8ac",
".n c #c6c6c6",
"a# c #c7a081",
"#X c #c8a487",
"a. c #c8a488",
"#Q c #c9a88d",
"#9 c #c9a88e",
".v c #c9c9c9",
"#K c #cbac93",
"#8 c #cbad94",
"#3 c #cbb9ac",
"#Y c #cbcbcb",
"#C c #ccb099",
"#n c #ccc7c1",
"#7 c #cdb09a",
"#x c #ceb49f",
"#6 c #ceb5a0",
"#m c #cfb8a5",
"#5 c #cfb8a6",
"#4 c #cfbbaa",
".I c #cfcbc4",
"#f c #d0bcab",
".P c #d0c8c1",
"#. c #d2c0b1",
".m c #d6d6d6",
"#q c #d9d1c8",
"#g c #dbd5cf",
".B c #dcdcdc",
".l c #dedede",
".z c #e0e0e0",
".t c #e1e1e1",
"#L c #e4d3c3",
".O c #e4e0db",
"#W c #e7c2a2",
"#V c #e8c5a6",
"#P c #e9c5a6",
"#R c #e9d4c0",
"#U c #eac9ac",
"#J c #eac9ad",
"#D c #eadbcd",
".V c #eadfd5",
"#o c #eadfd7",
"#y c #ebded3",
"#T c #eccdb3",
"#I c #ecceb4",
"#B c #ecceb5",
".s c #ececec",
"#O c #eed2ba",
"#H c #eed2bb",
"#w c #eed3bc",
"#S c #eed5bf",
"#r c #eee0d6",
"#G c #efd6c1",
"#N c #efd7c1",
"#A c #efd8c2",
"#v c #efd8c3",
"#M c #efd8c5",
"#l c #f0d8c3",
"#h c #f0e5dc",
".H c #f0eeec",
"#F c #f1dbc8",
"#u c #f1dcc9",
"#E c #f1decd",
"## c #f1ece8",
".X c #f1f1f1",
"#e c #f2ddcb",
"#z c #f2e2d4",
"#t c #f3e0d0",
"#k c #f3e1d1",
".9 c #f3e1d2",
".4 c #f3f2f0",
"#d c #f4e1d2",
"#s c #f4e4d6",
"#j c #f5e5d8",
"#c c #f5e6d8",
".2 c #f5e6d9",
"#p c #f5e8dc",
"#i c #f6e9dd",
".8 c #f6eadf",
"#b c #f7eadf",
".1 c #f7ebe1",
".F c #f7f7f7",
".7 c #f8eee6",
"#a c #f8f0ea",
".0 c #f9efe7",
".U c #f9f0e8",
".6 c #faf3ed",
".Z c #faf4ee",
".5 c #faf6f2",
".T c #fbf3ee",
".S c #fcf8f5",
".Y c #fcfaf9",
".N c #fdfaf7",
".G c #fdfdfd",
".R c #fefdfb",
".M c #fefdfc",
".C c #fefefe",
".r c #ffffff",
"QtQtQtQtQtQtQtQtQtQtQtQtQtQtQtQtQtQtQtQtQtQtQtQt",
"QtQtQtQtQtQt.#.a.b.c.d.e.f.g.h.i.j.jQtQtQtQtQtQt",
"QtQtQtQtQtQt.k.l.l.l.l.l.l.m.n.o.j.p.jQtQtQtQtQt",
"QtQtQtQtQtQt.q.l.r.r.r.r.r.r.s.t.u.v.p.jQtQtQtQt",
"QtQtQtQtQtQt.w.l.r.r.r.r.r.r.r.s.e.r.v.p.jQtQtQt",
"QtQtQtQtQtQt.x.l.r.r.r.r.r.r.r.r.y.z.r.v.p.jQtQt",
"QtQtQtQtQtQt.A.B.C.r.r.r.r.r.r.r.#.y.e.u.j.jQtQt",
"Qt.D.D.D.D.D.E.B.F.G.C.G.C.r.r.r.G.H.I.J.K.jQtQt",
"Qt.D.D.D.D.D.L.B.r.r.r.r.r.G.r.r.M.N.O.P.Q.jQtQt",
"Qt.D.D.D.D.D.A.B.r.r.r.r.r.F.C.R.S.T.U.V.W.jQtQt",
"Qt.D.D.D.D.D.A.B.r.r.r.r.r.X.Y.S.Z.0.1.2.3.jQtQt",
".D.D.D.D.D.D.A.B.r.r.r.r.r.4.5.6.7.8.2.9#..jQtQt",
".D.D.D.D.D.D.A.B.r.r.r.r.r###a.7#b#c#d#e#f.jQtQt",
".D.D.D.D.D.D.A.B.r.r.r.r.r#g#h#i#j#k#e#l#m.jQtQt",
".D.D.D.D.D.D.A.B.r.r.r.r.r#n#o#p#j#k#e#l#m.jQtQt",
"Qt.D.D.D.D.D.A.B.r.r.r.r.r#q#r#s#t#u#v#w#x.jQtQt",
".D.D.D.D.D.D.A.B.r.r.r.r.r#y#z#t#u#A#w#B#C.jQtQt",
".D.D.D.D.D.D.A.B.r.r.r.r.r#D#E#F#G#H#I#J#K.jQtQt",
".D.D.D.D.D.D.A.B.r.r.r.r.r#L#M#N#O#I#J#P#Q.jQtQt",
"Qt.D.D.D.D.D.A.B.r.r.r.r.r#R#S#O#T#U#V#W#X.jQtQt",
"Qt.D.D.D.D.D.A#Y#Z#0#1#2#3#4#5#6#7#8#9a.a#.jQtQt",
"Qt.D.D.D.D.D.A.j.j.j.j.j.j.j.j.j.j.j.j.j.j.jQtQt",
"Qt.D.D.D.D.D.D.D.D.D.D.D.D.D.D.DQtQtQtQtQtQtQtQt",
"QtQtQtQtQtQtQtQtQtQtQtQtQtQtQtQtQtQtQtQtQtQtQtQt"};
