/* XPM */
static const char *fileopen_xpm[]={
"22 22 286 2",
".# c None",
"Qt c None",
".G c #5b66bf",
".d c #6d76c5",
"an c #0026bb",
".W c #002ec0",
".a c #7781c9",
"bg c #0020b8",
".j c #7d85ca",
"b6 c #001cb5",
".6 c #4358be",
".q c #636dc2",
"#5 c #0027bc",
".e c #7882c9",
"a0 c #0023b8",
"#g c #002cbe",
"#f c #002dbf",
"#e c #002fc1",
".y c #7f88cb",
"bR c #001eb6",
"cB c #001bb5",
"#M c #0028bd",
".V c #455abf",
".i c #6a74c3",
".b c #757dc8",
"aH c #0024ba",
".k c #7a83ca",
"al c #0017c9",
"aG c #0019c6",
"aF c #0015c8",
"#L c #0028cc",
"bA c #001fb7",
"#d c #1d46c0",
"#r c #6f9cf1",
"aZ c #001cc0",
"bz c #1f3cc6",
"ak c #001fc8",
"#s c #0029bd",
".x c #084bd0",
".F c #6a74c6",
".c c #7a83ca",
".f c #8990d1",
"#q c #74a0f1",
"bf c #001fbc",
"am c #0024bd",
"#4 c #0026c0",
"#3 c #0732d0",
"aE c #0022ca",
"ci c #0025b7",
"aY c #0025cf",
"b7 c #0039c7",
"cj c #003bc8",
"aD c #0128cb",
"aX c #0133d6",
"aW c #0133d7",
"be c #033bde",
"bd c #0341e4",
"bc c #0443e4",
"aV c #063ddd",
"cA c #0731b6",
"#7 c #0d52d3",
"aj c #1039d3",
"aC c #1142dc",
"cz c #123bb7",
"bS c #1353d2",
"cy c #143dba",
"cx c #1842bd",
"a3 c #195ad4",
"cw c #1a46bf",
"aB c #1a52e7",
"bT c #1a58d2",
"aU c #1c5bee",
"#K c #1d6bf0",
"cv c #1e4bc2",
"bB c #1e5dd6",
".r c #1f61d7",
"#l c #2057d0",
"cu c #224fc5",
"#E c #2258d1",
"bh c #2260d7",
"bb c #2261ee",
"b5 c #244ac1",
"aA c #2462f0",
"ct c #2553c9",
"a1 c #2562d7",
"ck c #2760d4",
"aI c #2765d9",
"cs c #2857cb",
"ai c #2964e9",
"ao c #2966da",
"cr c #2c5bcf",
"#6 c #2d6ada",
"cq c #2f60d1",
"#N c #306cdb",
"cp c #3263d3",
"aT c #3270f3",
"#t c #336edc",
"ah c #3377f5",
"by c #344fcb",
"co c #3465d5",
"cn c #3467d6",
"cm c #3669d6",
"#h c #3670dc",
"cl c #376bd7",
".7 c #3973dc",
"az c #3976f4",
"#2 c #397df6",
"bC c #3a77df",
".X c #3c75dd",
"bx c #3d59d1",
".H c #3d76de",
"bw c #4160d7",
"ba c #427ff6",
"bv c #436ae0",
"bu c #4571e7",
"#I c #4594ff",
"aJ c #4684e4",
"#1 c #4696ff",
"#v c #4771d2",
"ag c #478cfc",
"#H c #4796ff",
"aS c #4884f6",
"aq c #4a7fe1",
"#0 c #4c99ff",
"#J c #4c9cff",
"bt c #4f78e7",
"ay c #508af8",
"#O c #518fe9",
"bj c #5788e3",
"b# c #5792fa",
"af c #599cff",
".w c #5c94eb",
"aR c #5f98fb",
"bQ c #6075ca",
"#c c #6184dc",
".v c #6298eb",
"#m c #6493ea",
"bs c #658ded",
"ax c #659efb",
"#b c #6689de",
"#a c #668adf",
"#P c #6796e7",
".u c #679ced",
"b8 c #6a93e6",
"b. c #6ca6fd",
"#D c #6d90e3",
".t c #6d9fed",
"ae c #6dabff",
"#C c #6f94e4",
".s c #6fa1ed",
"#B c #7397e6",
"aQ c #73abfe",
"#F c #74a0ef",
"#A c #759ae7",
".O c #7788d0",
"#z c #779ee8",
"a8 c #78b1fa",
"a9 c #79b1fd",
"#y c #7aa1ea",
"bi c #7ab1f2",
"#G c #7ab5ff",
"#x c #7da3ed",
"aw c #7db3ff",
"br c #7ea4f5",
"#w c #7ea6ed",
"#p c #81abf4",
"ad c #81bbff",
".5 c #828bd1",
"#Z c #82bbff",
"#o c #84aef6",
"#X c #85b2f6",
"ap c #85bbf6",
"#n c #86b0f6",
"aP c #88bdff",
"#Y c #89b6fb",
"aO c #8abefc",
"#W c #8dbaf6",
"bq c #8fb5f9",
".9 c #939dd6",
"bp c #93b8f8",
"a7 c #94d2ff",
".N c #96c1f6",
".p c #979eda",
".Z c #97aee4",
"#V c #97bff8",
"aK c #98baf3",
"ac c #99ccff",
"aN c #9cd2ff",
".z c #9fa4db",
"#i c #a0b8e8",
"#U c #a1c7f9",
"av c #a1d2ff",
"bo c #a2cafe",
"#u c #a2d3fe",
".0 c #a3aadc",
"ch c #a4a7cb",
"a6 c #a6ddff",
"#T c #aacdf9",
"cg c #abaccf",
"#Q c #acc1f1",
".8 c #aed0f6",
"cf c #b0b1d1",
"bD c #b0c8f6",
".M c #b1e5ff",
"bP c #b2b2d9",
"at c #b2d0f1",
"bn c #b2daff",
"#S c #b3d3fa",
"b4 c #b4b4db",
".Y c #b4e4ff",
"bO c #b8b8dc",
"ce c #b8bad6",
"ab c #b8e5ff",
".L c #b8eaff",
"b3 c #bcbcde",
".l c #bdc0e8",
"#R c #bdd5fb",
"bN c #bebee0",
"a2 c #beeaff",
".K c #beeeff",
"bm c #bfe5ff",
"a5 c #bfeaff",
"cd c #c0c1dd",
"b2 c #c1c1e1",
".U c #c2c8ed",
"aM c #c2efff",
"bM c #c6c6e4",
".J c #c6f1ff",
"au c #c7eeff",
"b1 c #c8c8e6",
".P c #c9cced",
"cc c #cacbe3",
"bL c #cbcbe7",
"bl c #cbeeff",
"aa c #ccf2ff",
".I c #ccf5ff",
"#j c #cdd2ef",
"b0 c #cfcfe9",
"bK c #d3d3eb",
"cb c #d3d4e8",
"#9 c #d4e0fa",
"bZ c #d5d5ed",
"## c #d5daf6",
".g c #d7daf4",
"bk c #d7f2ff",
"bJ c #d9d9ef",
"as c #d9f6ff",
"#k c #dadff9",
"bY c #dcdcf1",
"ca c #dcddef",
".h c #dcdff6",
"bI c #dfdff2",
"#. c #dfe1f6",
"a# c #e1ffff",
"bX c #e3e3f4",
".4 c #e3e3f8",
"a. c #e3f3ff",
".A c #e4e6fa",
".T c #e5e5f9",
"aL c #e5fcff",
"c# c #e6e6f4",
"bH c #e6e6f6",
".D c #e6e6fa",
"#8 c #e7f6ff",
"bW c #e8e8f8",
".n c #eaeafb",
"bG c #ededfa",
".E c #eeeefd",
".o c #efeffd",
".C c #efeffe",
"c. c #eff0fa",
"a4 c #effeff",
"bV c #f0f0fb",
"ar c #f0feff",
"bF c #f2f2fd",
".S c #f2f2ff",
".B c #f3f3ff",
".m c #f5f5ff",
".1 c #f5f6ff",
"bU c #f6f6ff",
".R c #f8f8ff",
"b9 c #f9f9ff",
"bE c #fafaff",
".3 c #fcfcff",
".Q c #fdfdff",
".2 c #ffffff",
"QtQtQtQtQtQtQtQtQtQtQtQtQtQtQtQtQtQtQtQtQtQt",
"QtQtQtQtQtQtQtQtQtQtQtQtQtQtQtQtQtQtQtQtQtQt",
".#.#.#.#.#.#.#.#.#.#.#.#.a.b.c.d.#.#.#.#.#.#",
".#.#.#.#.#.#.#.#.#.#.#.e.f.g.h.i.#.#.#.#.#.#",
"QtQtQtQtQtQtQt.#.#.j.k.l.m.n.o.p.q.#.#.#.#.#",
".r.s.t.u.v.w.xQt.y.z.A.B.C.n.D.E.F.G.#.#.#.#",
".H.I.J.K.L.M.N.O.P.Q.R.S.C.n.D.T.U.V.W.#.#.#",
".X.I.J.K.Y.Z.0.1.2.3.R.S.C.n.D.4.E.5.6.#.#.#",
".7.I.J.8.9#..2.2.2.3.R.S.C.n###a#b#c#d#e#f#g",
"#h.I.J#i#j.2.2.2.2.3.R.S.C#k#l#m#n#o#p#q#r#s",
"#t.I.J#u#v#w#x#y#z#A#B#C#D#E#F#G#H#I#J#K#L#M",
"#N.I.J#O#P#Q#R#S#T#U#V#W#X#Y#Z#0#I#1#2#3#4#5",
"#6.I.J#7#8#9a.a#aaabacadaeafagahaiajakalaman",
"ao.IapaqarasatauavawaxayazaAaBaCaDaEaFaGaH.#",
"aI.IaJaKaLaMaNaOaPaQaRaSaTaUaVaWaXaYaFaZa0.#",
"a1a2a3a4a5a6a7a8a9b.b#babbbcbdbeaXaYaFbfbg.#",
"bhbibjbkblbmbnbobpbqbrbsbtbubvbwbxbybzbA.#.#",
"bBbCbD.2.2.2bEbFbGbHbIbJbKbLbMbNbObPbQbR.#.#",
"bSbT.2.2.2.2.3bUbVbWbXbYbZb0b1b2b3b4b5b6.#.#",
"b7b8.2.2.2.2.2b9c.c#cacbcccdcecfcgchci.#.#.#",
"cjckclcmcncocpcqcrcsctcucvcwcxcyczcAcB.#.#.#",
"QtQtQtQtQtQtQtQtQtQtQtQtQtQtQtQtQtQtQtQtQtQt"};
