/* XPM */
static const char *filelock_xpm[]={
"24 24 183 2",
".D c None",
"Qt c None",
".j c #000000",
".i c #080808",
".h c #101010",
".u c #141414",
".g c #181818",
".f c #212121",
".E c #232300",
".e c #292929",
"aI c #2b2b2b",
".M c #303030",
".d c #313131",
".A c #323232",
"#h c #373737",
".x c #393939",
".c c #3a3a3a",
"#u c #3c3c3c",
".y c #3e3e3e",
".w c #3f3f3f",
".b c #424242",
".q c #464646",
"aH c #474747",
".a c #4a4a4a",
".k c #4c4c4c",
"ax c #4e4e4e",
"al c #4f4f4f",
"ad c #505050",
"#3 c #515151",
".# c #535353",
"aE c #565656",
"#4 c #575757",
"#I c #5b5b5b",
"am c #5c5c5c",
"#J c #5d5d5d",
"#T c #5e5e5e",
"#C c #626262",
"#e c #636363",
"aR c #6b6b6b",
".V c #6d6d6d",
"#q c #6e6e6e",
"#X c #737373",
"aj c #767676",
"aG c #797979",
"aw c #7a7a7a",
"#E c #7c7c7c",
"#f c #7f7f7f",
"ab c #808080",
".L c #857f7a",
"#2 c #858585",
"#R c #8b8b8b",
".7 c #8c8c8c",
"aF c #909090",
"#H c #949494",
"ac c #969696",
"#r c #979797",
".p c #989898",
"#Y c #999999",
"#g c #9a9a9a",
"#D c #9d9d9d",
"#t c #9f9f9f",
".R c #a09b97",
".S c #a0a0a0",
".2 c #a4a4a4",
"aQ c #a6a6a6",
"#1 c #a9a9a9",
"#s c #aeaeae",
".U c #b1b1b1",
".o c #b4b4b4",
"#Z c #b7b7b7",
".K c #b8b1a9",
".6 c #b9b9b9",
".1 c #bbb2ab",
".T c #bbbbbb",
".5 c #bcbcbc",
"#d c #bebebe",
"#p c #c0c0c0",
"ak c #c1c1c1",
"#0 c #c2c2c2",
".4 c #c4c4c4",
"#c c #c6b8ac",
".n c #c6c6c6",
"a0 c #c7a081",
"aP c #c8a487",
"aZ c #c8a488",
"aD c #c9a88d",
"aY c #c9a88e",
".v c #c9c9c9",
"#F c #cacaca",
"au c #cbac93",
"aX c #cbad94",
"aS c #cbb9ac",
"#G c #cbcbcb",
"ai c #ccb099",
"#U c #ccc7c1",
"aW c #cdb09a",
"aa c #ceb49f",
"aV c #ceb5a0",
"#Q c #cfb8a5",
"aU c #cfb8a6",
"aT c #cfbbaa",
".J c #cfcbc4",
"#B c #d0bcab",
".Q c #d0c8c1",
".F c #d1d1d1",
"#o c #d2c0b1",
".3 c #d3d3d3",
".m c #d6d6d6",
"#5 c #d9d1c8",
"#K c #dbd5cf",
".B c #dcdcdc",
".l c #dedede",
".z c #e0e0e0",
".t c #e1e1e1",
"ay c #e4d3c3",
".P c #e4e0db",
"#S c #e5e5e5",
"aO c #e7c2a2",
"aN c #e8c5a6",
"aC c #e9c5a6",
"aJ c #e9d4c0",
"aM c #eac9ac",
"at c #eac9ad",
"an c #eadbcd",
".0 c #eadfd5",
"#V c #eadfd7",
"av c #eaeaea",
"ae c #ebded3",
"aL c #eccdb3",
"as c #ecceb4",
"ah c #ecceb5",
".s c #ececec",
"aB c #eed2ba",
"ar c #eed2bb",
"a# c #eed3bc",
"aK c #eed5bf",
"#6 c #eee0d6",
"aq c #efd6c1",
"aA c #efd7c1",
"ag c #efd8c2",
"a. c #efd8c3",
"az c #efd8c5",
"#P c #f0d8c3",
"#L c #f0e5dc",
".I c #f0eeec",
"ap c #f1dbc8",
"#9 c #f1dcc9",
"ao c #f1decd",
"#v c #f1ece8",
".8 c #f1f1f1",
"#A c #f2ddcb",
"af c #f2e2d4",
"#8 c #f3e0d0",
"#O c #f3e1d1",
"#n c #f3e1d2",
"#i c #f3f2f0",
"#z c #f4e1d2",
"#7 c #f4e4d6",
"#N c #f5e5d8",
"#y c #f5e6d8",
"#b c #f5e6d9",
"#W c #f5e8dc",
"#M c #f6e9dd",
"#m c #f6eadf",
"#x c #f7eadf",
"#a c #f7ebe1",
".G c #f7f7f7",
"#l c #f8eee6",
"#w c #f8f0ea",
"## c #f9efe7",
".Z c #f9f0e8",
"#k c #faf3ed",
"#. c #faf4ee",
"#j c #faf6f2",
".Y c #fbf3ee",
".X c #fcf8f5",
".9 c #fcfaf9",
".O c #fdfaf7",
".H c #fdfdfd",
".W c #fefdfb",
".N c #fefdfc",
".C c #fefefe",
".r c #ffffff",
"QtQtQtQtQtQtQtQtQtQtQtQtQtQtQtQtQtQtQtQtQtQtQtQt",
"QtQtQtQtQtQt.#.a.b.c.d.e.f.g.h.i.j.jQtQtQtQtQtQt",
"QtQtQtQtQtQt.k.l.l.l.l.l.l.m.n.o.j.p.jQtQtQtQtQt",
"QtQtQtQtQtQt.q.l.r.r.r.r.r.r.s.t.u.v.p.jQtQtQtQt",
"QtQtQtQtQtQt.w.l.r.r.r.r.r.r.r.s.e.r.v.p.jQtQtQt",
"QtQtQtQtQtQt.x.l.r.r.r.r.r.r.r.r.y.z.r.v.p.jQtQt",
"QtQtQtQtQtQt.A.B.C.r.r.r.r.r.r.r.#.y.e.u.j.jQtQt",
"Qt.D.D.D.D.D.E.F.G.H.C.H.C.r.r.r.H.I.J.K.L.jQtQt",
"Qt.D.D.D.D.D.M.l.r.r.r.r.r.H.r.r.N.O.P.Q.R.jQtQt",
"Qt.D.D.D.D.D.S.T.T.U.V.r.r.G.C.W.X.Y.Z.0.1.jQtQt",
"Qt.D.D.D.D.2.3.4.5.6.7.d.r.8.9.X#.###a#b#c.jQtQt",
".D.D.D.D.D#d.7#e.r#f#g#h.r#i#j#k#l#m#b#n#o.jQtQt",
".D.D.D.D.D#p#q#r#p#s#t#u.r#v#w#l#x#y#z#A#B.jQtQt",
".D.D.D.D#C#D#E#F.8#G#H#I#J#K#L#M#N#O#A#P#Q.jQtQt",
".D.D.D.D.V#R.U.8#S.m.U#e#T#U#V#W#N#O#A#P#Q.jQtQt",
"Qt.D.D.D#X#Y#Z.l#0#1#2#3#4#5#6#7#8#9a.a#aa.jQtQt",
".D.D.D.Dabac#d.s#F.Uabad#Jaeaf#8#9aga#ahai.jQtQt",
".D.D.D.Daj#rak.s#F.U#Ealamanaoapaqarasatau.jQtQt",
".D.D.D.Daj#H#dav#F#sawaxamayazaAaBasataCaD.jQtQt",
"Qt.D.D.DaEaF#dav#F#saGaHaIaJaKaBaLaMaNaOaP.jQtQt",
"Qt.D.D.D.DawaQ#G.6#DaRaIaSaTaUaVaWaXaYaZa0.jQtQt",
"Qt.D.D.D.D.D.j.j.j.j.j.j.j.j.j.j.j.j.j.j.j.jQtQt",
"Qt.D.D.D.D.D.D.D.D.D.D.D.D.D.D.DQtQtQtQtQtQtQtQt",
"QtQtQtQtQtQtQtQtQtQtQtQtQtQtQtQtQtQtQtQtQtQtQtQt"};
