/* XPM */
static const char *fileunlock_xpm[]={
"24 24 202 2",
".D c None",
"Qt c None",
".j c #000000",
".i c #080808",
".h c #101010",
".u c #141414",
".g c #181818",
".f c #212121",
".E c #232300",
".e c #292929",
".L c #303030",
".d c #313131",
".A c #323232",
"#n c #373737",
".x c #393939",
".c c #3a3a3a",
"#A c #3c3c3c",
".y c #3e3e3e",
".w c #3f3f3f",
".b c #424242",
".q c #464646",
".a c #4a4a4a",
".k c #4c4c4c",
"a. c #515151",
".# c #535353",
"aU c #565656",
"a# c #575757",
"#O c #5b5b5b",
"#P c #5d5d5d",
"#V c #5e5e5e",
"#I c #626262",
"#k c #636363",
".0 c #6d6d6d",
"#w c #6e6e6e",
"#4 c #737373",
"au c #767676",
"a9 c #7a7a7a",
"#K c #7c7c7c",
"#l c #7f7f7f",
"af c #808080",
".K c #857f7a",
"#9 c #858585",
"#T c #8b8b8b",
"#b c #8c8c8c",
"aV c #909090",
"#N c #949494",
"ag c #969696",
"#x c #979797",
".p c #989898",
"#5 c #999999",
"#m c #9a9a9a",
"#J c #9d9d9d",
"#z c #9f9f9f",
".Q c #a09b97",
".X c #a0a0a0",
".8 c #a4a4a4",
"b. c #a6a6a6",
"#8 c #a9a9a9",
"#y c #aeaeae",
".Z c #b1b1b1",
".o c #b4b4b4",
"#6 c #b7b7b7",
".J c #b8b1a9",
"#a c #b9b9b9",
"bf c #ba4730",
".W c #bbb2ab",
".Y c #bbbbbb",
"## c #bcbcbc",
"#j c #bebebe",
"ah c #bfbfbf",
"#v c #c0c0c0",
"av c #c1c1c1",
"#7 c #c2c2c2",
"#. c #c4c4c4",
".7 c #c6b8ac",
".n c #c6c6c6",
"a8 c #c7a081",
"ax c #c81916",
"aT c #c8a487",
"a7 c #c8a488",
"be c #c92119",
"aG c #c9a88d",
"a6 c #c9a88e",
".v c #c9c9c9",
"#L c #cacaca",
"ay c #cb1e0f",
"at c #cbac93",
"a5 c #cbad94",
"#M c #cbcbcb",
"ae c #ccb099",
"#Q c #ccc7c1",
"a4 c #cdb09a",
"#3 c #ceb49f",
"a3 c #ceb5a0",
"#H c #cfb8a5",
"a2 c #cfb8a6",
".I c #cfcbc4",
"#u c #d0bcab",
".P c #d0c8c1",
"bg c #d21d0e",
"#i c #d2c0b1",
"aN c #d32717",
"aX c #d32919",
"bh c #d32c20",
"ai c #d37169",
".9 c #d3d3d3",
"a1 c #d43224",
"b# c #d56f5c",
"az c #d6270b",
".m c #d6d6d6",
"aJ c #d75b57",
"#W c #d9d1c8",
"#B c #dbd5cf",
".B c #dcdcdc",
"aw c #dd7c74",
".l c #dedede",
".z c #e0e0e0",
"aB c #e13d27",
".t c #e1e1e1",
"aj c #e35244",
"aI c #e35850",
".O c #e4e0db",
"aA c #e52e0a",
"aW c #e55c50",
"#U c #e5e5e5",
"aS c #e7c2a2",
"ak c #e85a44",
"aR c #e8c5a6",
"aF c #e9c5a6",
"aQ c #eac9ac",
"as c #eac9ad",
"am c #eadbcd",
".V c #eadfd5",
"#R c #eadfd7",
"aH c #eaeaea",
"aa c #ebded3",
"ba c #ec624a",
"aP c #eccdb3",
"ar c #ecceb4",
"ad c #ecceb5",
".s c #ececec",
"aE c #eed2ba",
"aq c #eed2bb",
"#2 c #eed3bc",
"aO c #eed5bf",
"#X c #eee0d6",
"ap c #efd6c1",
"aD c #efd7c1",
"ac c #efd8c2",
"#1 c #efd8c3",
"aC c #efd8c5",
"#G c #f0d8c3",
"#C c #f0e5dc",
".H c #f0eeec",
"bb c #f1654e",
"aM c #f1745c",
"ao c #f1dbc8",
"#0 c #f1dcc9",
"an c #f1decd",
"#o c #f1ece8",
".1 c #f1f1f1",
"a0 c #f25d42",
"#t c #f2ddcb",
"ab c #f2e2d4",
"aK c #f3ccc7",
"#Z c #f3e0d0",
"#F c #f3e1d1",
"#h c #f3e1d2",
"#c c #f3f2f0",
"al c #f4674b",
"bc c #f47763",
"#s c #f4e1d2",
"#Y c #f4e4d6",
"aL c #f5ccc6",
"#E c #f5e5d8",
"#r c #f5e6d8",
".6 c #f5e6d9",
"#S c #f5e8dc",
"bd c #f68a79",
"aY c #f6ccc6",
"#D c #f6e9dd",
"#g c #f6eadf",
"#q c #f7eadf",
".5 c #f7ebe1",
".F c #f7f7f7",
"#f c #f8eee6",
"#p c #f8f0ea",
".4 c #f9efe7",
".U c #f9f0e8",
"aZ c #fad1ca",
"#e c #faf3ed",
".3 c #faf4ee",
"#d c #faf6f2",
".T c #fbf3ee",
".S c #fcf8f5",
".2 c #fcfaf9",
".N c #fdfaf7",
".G c #fdfdfd",
".R c #fefdfb",
".M c #fefdfc",
".C c #fefefe",
".r c #ffffff",
"QtQtQtQtQtQtQtQtQtQtQtQtQtQtQtQtQtQtQtQtQtQtQtQt",
"QtQtQtQtQtQt.#.a.b.c.d.e.f.g.h.i.j.jQtQtQtQtQtQt",
"QtQtQtQtQtQt.k.l.l.l.l.l.l.m.n.o.j.p.jQtQtQtQtQt",
"QtQtQtQtQtQt.q.l.r.r.r.r.r.r.s.t.u.v.p.jQtQtQtQt",
"QtQtQtQtQtQt.w.l.r.r.r.r.r.r.r.s.e.r.v.p.jQtQtQt",
"QtQtQtQtQtQt.x.l.r.r.r.r.r.r.r.r.y.z.r.v.p.jQtQt",
"QtQtQtQtQtQt.A.B.C.r.r.r.r.r.r.r.#.y.e.u.j.jQtQt",
"Qt.D.D.D.D.D.E.B.F.G.C.G.C.r.r.r.G.H.I.J.K.jQtQt",
"Qt.D.D.D.D.D.L.B.r.r.r.r.r.G.r.r.M.N.O.P.Q.jQtQt",
"Qt.D.D.D.D.D.A.B.r.r.r.r.r.F.C.R.S.T.U.V.W.jQtQt",
"Qt.D.D.D.D.D.X.Y.Y.Z.0.r.r.1.2.S.3.4.5.6.7.jQtQt",
".D.D.D.D.D.8.9#.###a#b.d.r#c#d#e#f#g.6#h#i.jQtQt",
".D.D.D.D.D#j#b#k.r#l#m#n.r#o#p#f#q#r#s#t#u.jQtQt",
".D.D.D.D.D#v#w#x#v#y#z#A.r#B#C#D#E#F#t#G#H.jQtQt",
".D.D.D.D#I#J#K#L.1#M#N#O#P#Q#R#S#E#F#t#G#H.jQtQt",
"Qt.D.D.D.0#T.Z.1#U.m.Z#k#V#W#X#Y#Z#0#1#2#3.jQtQt",
".D.D.D.D#4#5#6.l#7#8#9a.a#aaab#Z#0ac#2adae.jQtQt",
".D.D.D.Dafag#j.sahaiajakalamanaoapaqarasat.jQtQt",
".D.D.D.Dau#xav.sawaxayazaAaBaCaDaEarasaFaG.jQtQt",
"Qt.D.D.Dau#N#jaHaIaJaKaLaMaNaOaEaPaQaRaSaT.jQtQt",
"Qt.D.D.DaUaV#jaHaWaXaYaZa0a1a2a3a4a5a6a7a8.jQtQt",
"Qt.D.D.D.Da9b.#Mb#babbbcbdbe.j.j.j.j.j.j.j.jQtQt",
"Qt.D.D.D.D.D.D.D.jbfbgbhbe.D.D.DQtQtQtQtQtQtQtQt",
"Qt.D.D.D.D.D.D.D.D.D.D.D.D.D.D.DQtQtQtQtQtQtQtQt"};
