/* XPM */
static const char *filenew_xpm[]={
"22 22 52 1",
". c None",
"D c #747885",
"w c #8c91a3",
"e c #b2b7c8",
"d c #c1c5d3",
"c c #c4c8d5",
"C c #c8ccd9",
"B c #c9cdda",
"b c #c9ceda",
"F c #cacfdb",
"E c #ccd0dc",
"# c #cdd1dd",
"A c #cfd2de",
"a c #cfd3de",
"X c #d2d6e0",
"K c #d3d6e2",
"J c #d4d7e3",
"I c #d5d9e3",
"O c #d6dae4",
"N c #d9dce6",
"H c #dbdee8",
"t c #dcdfe9",
"k c #dfe2eb",
"M c #e0e3ec",
"S c #e1e4ed",
"R c #e3e6ee",
"L c #e5e7f0",
"o c #e6e8f0",
"p c #e7e9f1",
"T c #e8eaf2",
"W c #eaecf3",
"Q c #eaedf3",
"z c #ebedf4",
"j c #edeff6",
"y c #eef0f7",
"n c #f0f1f8",
"s c #f0f2f8",
"P c #f1f2f8",
"i c #f1f3f8",
"V c #f2f4f9",
"m c #f3f5f9",
"U c #f5f6fa",
"h c #f5f7fa",
"u c #f6f8fa",
"r c #f7f8fb",
"l c #f8f9fb",
"v c #f9fafc",
"x c #fafbfc",
"q c #fbfcfd",
"G c #fcfcfd",
"g c #fdfefe",
"f c #ffffff",
".#aaaaaabcdee.........",
".afffffghijake........",
".afffffglmnaope.......",
".affffffqrmasqte......",
".affffffqlmalfupe.....",
".affffffqvhwwwwwww....",
".affffffgxryyzABCD....",
".affffffgqrizk#EFD....",
".affffffGxhpkHIJKD....",
".afffffglhiLMHNNOD....",
".afffffgPzQpLRMktD....",
".affffghyjzppoSSkD....",
".afggghmssjzTpLRSD....",
".afuuuhUmiPjzQpLLD....",
".afrrrhhViPjzWpoRD....",
".afrrruUmiijjzTpLD....",
".afrrruUmiijjzTpLD....",
".afrrruUmiijjzTpLD....",
".afrrruhmiijjzppLD....",
".afhhhUmiiPjzQpoRD....",
".afqqqvvuhmisyzQpD....",
".XDDDDDDDDDDDDDDDD...."};
