/* XPM */
static const char *find_xpm[]={
"22 22 240 2",
"Qt c None",
"a8 c #000000",
"ax c #404063",
"bl c #000000",
"#X c #000000",
"aB c #676784",
".H c #87879f",
".G c #9292a7",
".# c #a7a7b8",
"aw c #464668",
"a0 c #7b7b95",
"#. c #7f7f97",
".t c #9c9cb0",
"a1 c #74748e",
"aC c #404063",
"aJ c #75758f",
"aZ c #404063",
"bK c #5f3017",
"bE c #613217",
"bw c #6f3b18",
"bo c #7d4618",
"bf c #8d5019",
".v c #9292a7",
".j c #9e9eb0",
".g c #a8a8b8",
"aT c #404063",
"am c #464667",
"al c #4f4f6f",
"#p c #75758f",
".W c #808098",
"bQ c #5f3017",
"bC c #6a3818",
"bu c #784218",
"bk c #874d19",
"bc c #975819",
"a6 c #a66219",
".a c #a9a9b9",
"aS c #b66d1a",
"bT c #4b4b6b",
"aY c #404063",
"aa c #585877",
"#W c #626280",
"#F c #6b6b87",
".T c #8c90a8",
".s c #9ca2b7",
".f c #a4aabe",
"aU c #4e5677",
"ab c #515b81",
"#c c #6f7a9c",
"a2 c #847678",
"ay c #4a567d",
"aK c #4f5b7f",
".I c #7c90b6",
".k c #899ec3",
".F c #93a1b8",
"a9 c #985919",
".b c #99a8c5",
"#J c #243f7d",
"bn c #26417f",
"bd c #274481",
".u c #294683",
"#I c #304d8b",
"#Y c #314f8c",
"bD c #33518d",
"#s c #33528e",
"#b c #34538f",
"#H c #355490",
"bP c #375692",
"#G c #395894",
"#r c #3d5c97",
"bm c #41609a",
".i c #45649e",
"aA c #515172",
"#a c #5675ab",
"aN c #575877",
"aD c #596f97",
"#Z c #5a73a2",
"aH c #5b5c7a",
"aV c #5b6886",
"#q c #5c7baf",
"#K c #5d80b6",
"aW c #5e6a87",
"aX c #606b87",
".V c #607fb2",
"#t c #647aa7",
"bR c #683919",
"bJ c #693a1d",
"## c #6b89b9",
"bS c #6c6373",
"be c #6c8aba",
"an c #70a2cf",
"bO c #746a79",
".U c #7491c0",
".X c #74a7dc",
".J c #76bbf5",
".x c #77bcf5",
".l c #7aafe3",
".w c #7c98c4",
"#d c #7cc2f5",
".m c #7dc2f6",
"a7 c #7e9bc5",
"bN c #7f5432",
"av c #7f859c",
"aI c #818199",
".h c #829ec7",
".d c #86aad7",
"aO c #87879e",
"aL c #87b6d2",
"#u c #87cbf7",
"ac c #88ccf7",
"bv c #89a4cb",
".Y c #89ccf7",
".q c #89cef7",
".n c #8ccff7",
".c c #8da8d0",
".y c #8dd0f7",
".r c #8eb8dd",
"ae c #8ed1f8",
"#0 c #8ed2f8",
".p c #8fd2f8",
".o c #90d3f8",
".K c #91d5f8",
".9 c #92acc3",
"#e c #92d5f8",
".E c #95d3f3",
".B c #95d7f8",
"aM c #96a6b7",
".z c #96d8f8",
"bL c #97672f",
".Q c #97d8f8",
"#v c #97daf9",
"bF c #98672f",
"#1 c #98dbf9",
"ao c #99dbf9",
"#L c #99dcf9",
".e c #9aacc9",
"#M c #9addf9",
".A c #9bddf9",
"ad c #9cdef9",
".S c #9ed2e9",
".P c #9ee0f9",
"bx c #9f6c2e",
".C c #9fe1f9",
"aQ c #a0928f",
"#N c #a0e0f9",
"ap c #a0e2fb",
"aP c #a1a1b3",
".D c #a2e3fb",
".R c #a2e4fb",
".Z c #a3e4fb",
".L c #a4e6fb",
"af c #a6e6fb",
"#i c #a6e7fb",
".5 c #a7e8fb",
"bp c #a8732d",
"#2 c #a8e8fb",
"a3 c #aa6c27",
".3 c #aae8fb",
".6 c #abecfc",
"#o c #aee0e8",
"#O c #aee9fb",
".O c #afeefc",
"#3 c #b0eefc",
".7 c #b0f0fc",
".M c #b1f1fc",
"bg c #b27a2d",
"#4 c #b2eefc",
"aq c #b2f2fd",
"aE c #b3f2fd",
"#z c #b3f3fd",
".N c #b5f3fd",
"bB c #b7680d",
"ag c #b7f3fd",
"#k c #b7f7fd",
".8 c #b8f7fd",
".0 c #bcf9fd",
"bt c #bd6c0e",
"#l c #bdfbfe",
"aR c #be7620",
"#m c #befcfe",
".4 c #bffbfe",
"aF c #bffcfe",
"#n c #c2fdfe",
"bj c #c3720f",
"ah c #c3fdfe",
"ak c #c4dbe2",
"#B c #c5fefe",
"#E c #c8fefe",
"bb c #c97610",
"#5 c #c9fbfe",
"#P c #c9fcfe",
"#C c #c9fefe",
"aG c #cad7e0",
"#j c #caf9fd",
"#D c #cafefe",
"#f c #cbfefe",
".1 c #ccfefe",
"az c #ced7e0",
"#w c #cefefe",
"a5 c #cf7b10",
"#R c #cffefe",
".2 c #d0fefe",
"#V c #d2fefe",
"#y c #d3f6fd",
"#S c #d3fefe",
"#A c #d5fdfe",
"#U c #d5fefe",
"#T c #d6fefe",
"#7 c #d8fefe",
"a# c #dafefe",
"#6 c #dbfefe",
"#Q c #ddfefe",
"#8 c #defefe",
"a4 c #e09c34",
"a. c #e0fefe",
"#9 c #e1fefe",
"bI c #e29e32",
"#g c #e2fefe",
"ar c #e4fefe",
"#x c #e7fefe",
"ai c #e8fefe",
"#h c #e9fefe",
"b. c #ebcb7c",
"bA c #eca636",
"bs c #eca737",
"ba c #eca839",
"aj c #ecfefe",
"as c #f0fefe",
"bM c #f2dc96",
"au c #f2fefe",
"bH c #f6d384",
"bz c #f6d585",
"br c #f6d687",
"bi c #f6d688",
"b# c #f6d78b",
"at c #f7fefe",
"bh c #fde89b",
"bq c #fde99e",
"by c #fde99f",
"bG c #fdeba0",
"QtQtQt.#.a.b.c.d.e.f.gQtQtQtQtQtQtQt.h.iQtQt",
"QtQt.j.k.l.m.n.o.p.q.r.s.tQtQtQtQtQt.i.uQt.h",
"Qt.v.w.x.y.z.A.A.B.C.D.E.F.GQtQtQtQtQtQtQt.i",
".H.I.J.K.L.M.N.O.P.Q.R.O.S.TQtQtQtQt.U.VQtQt",
".W.X.Y.Z.0.1.2.3.4.5.6.7.8.9#.QtQt###a.i#bQt",
"#c#d#e.O#f#g#h#i#j#k#l#m#n#o#pQtQt#q.i#r#sQt",
"#t#u#v.M#w#x#y#z#A#B#C#f#D#E#FQtQt#G#H#I#JQt",
"#K.n#L#M#N#O.M#P#Q#R#S#T#U#V#WQtQt#X#Y#JQtQt",
"#Z#0#1#2#3#4#5#6.2#7#8#9a.a#aaQtQtQtQtQtQtQt",
"abacadaeafagah#f#Ta.aiaj#hakalQtQtQtQtQtQtQt",
"amanadaoapaqah#wa#arasatauavawQtQtQtQtQtQtQt",
"axay#e.5.Laqah#wa#arasatazaAaBQtQtQtQtQtQtQt",
"QtaCaDad.MaEaF#f#Ta.aiaGaHaIaJQtQtQtQtQtQtQt",
"QtQtaCaKaLaEaF#E.2#7aMaNaOaPaQaRaSQtQtQtQtQt",
"QtQtQtaxaTaUaVaWaXaYaZa0a1a2a3a4a5a6QtQtQtQt",
"Qta7#ra8QtQtQtQtQtQtQtQtQta9b.b#babbbcQtQtQt",
"Qt.ibdQtbe#IQtQtQtQtQtQtQtbfbgbhbibabjbkQtQt",
"QtQtQtblbmbnQtQtQtQtQtQtQtQtbobpbqbrbsbtbuQt",
"bv.U.VQtQtQtQtQtQtQtQtQtQtQtQtbwbxbybzbAbBbC",
"###a.ibDQt.h.iQtQtQtQtQtQtQtQtQtbEbFbGbHbIbJ",
".V.i#r#sQt.i.uQtQtQtQtQtQtQtQtQtQtbKbLbMbNbO",
"bmbP#I#JQtQtQtQtQtQtQtQtQtQtQtQtQtQtbQbRbSbT"};
