/* XPM */
static const char * key_xpm[] = {
"32 32 194 2",
"  	c None",
". 	c #E1C963",
"+ 	c #A67945",
"@ 	c #D1B774",
"# 	c #E1C758",
"$ 	c #CEB25C",
"% 	c #A47639",
"& 	c #815122",
"* 	c #E3C270",
"= 	c #FFF980",
"- 	c #FFFF59",
"; 	c #FFF73C",
"> 	c #FFF62F",
", 	c #FFF726",
"' 	c #FFF039",
") 	c #DEB739",
"! 	c #764917",
"~ 	c #F0D275",
"{ 	c #FFFF67",
"] 	c #FFF33F",
"^ 	c #FFE12A",
"/ 	c #FFE126",
"( 	c #FFD913",
"_ 	c #FFE502",
": 	c #FFE600",
"< 	c #FFF10C",
"[ 	c #EEC328",
"} 	c #5D380E",
"| 	c #D3A44F",
"1 	c #FFFF68",
"2 	c #FFF03F",
"3 	c #FFEE3B",
"4 	c #FFDB1E",
"5 	c #FFDA13",
"6 	c #FFCD02",
"7 	c #FFE300",
"8 	c #FFE400",
"9 	c #FFF106",
"0 	c #CF9D11",
"a 	c #AE824A",
"b 	c #BC9968",
"c 	c #B89563",
"d 	c #B89663",
"e 	c #B99663",
"f 	c #B99662",
"g 	c #B99561",
"h 	c #B99660",
"i 	c #B7935D",
"j 	c #C59E69",
"k 	c #F6E472",
"l 	c #FFF443",
"m 	c #FFED39",
"n 	c #FFEC2E",
"o 	c #FFDD14",
"p 	c #FFDB03",
"q 	c #FFCD00",
"r 	c #FFE200",
"s 	c #FAD302",
"t 	c #FAD001",
"u 	c #663F06",
"v 	c #DAAC66",
"w 	c #FFFFA8",
"x 	c #FFFFA5",
"y 	c #FFFFA4",
"z 	c #FFFF9F",
"A 	c #FFFF91",
"B 	c #FFF981",
"C 	c #FFF26D",
"D 	c #FFEA5B",
"E 	c #FFE247",
"F 	c #FFDB3C",
"G 	c #FFD53B",
"H 	c #FFCF3A",
"I 	c #FFE753",
"J 	c #FFF752",
"K 	c #FFEC37",
"L 	c #FFEB2C",
"M 	c #FFE91A",
"N 	c #FFDE05",
"O 	c #FFDA00",
"P 	c #FFCE00",
"Q 	c #FFDE00",
"R 	c #AF8209",
"S 	c #472D0A",
"T 	c #9C6E07",
"U 	c #FFD800",
"V 	c #916E05",
"W 	c #7D4C13",
"X 	c #FEE987",
"Y 	c #FFFF95",
"Z 	c #FFFF86",
"` 	c #FFFF88",
" .	c #FFFF8A",
"..	c #FFFF85",
"+.	c #FFF976",
"@.	c #FFF367",
"#.	c #FFED57",
"$.	c #FFEE4C",
"%.	c #FFE639",
"&.	c #FFD928",
"*.	c #FFD423",
"=.	c #FFD01E",
"-.	c #FFDF2C",
";.	c #FFEB2E",
">.	c #FFE605",
",.	c #FFDF00",
"'.	c #FFD300",
").	c #FCD502",
"!.	c #4F320A",
"~.	c #F5C318",
"{.	c #A18103",
"].	c #8F6820",
"^.	c #FEEC7C",
"/.	c #FFFF97",
"(.	c #FFFF8E",
"_.	c #FFFD7E",
":.	c #FFFF7B",
"<.	c #F6E15D",
"[.	c #F4E35A",
"}.	c #FFFF65",
"|.	c #FFFD59",
"1.	c #FFFB4D",
"2.	c #FFF63E",
"3.	c #FFEC2D",
"4.	c #FFE818",
"5.	c #FFE604",
"6.	c #FFE000",
"7.	c #FFDB00",
"8.	c #FFD400",
"9.	c #FEDD05",
"0.	c #A37923",
"a.	c #A8794B",
"b.	c #FCE03D",
"c.	c #947001",
"d.	c #9C7226",
"e.	c #FEEA7A",
"f.	c #DFC55F",
"g.	c #B99137",
"h.	c #B88F34",
"i.	c #F2DE63",
"j.	c #FFFF7E",
"k.	c #EDD453",
"l.	c #79490A",
"m.	c #B27F23",
"n.	c #FDE348",
"o.	c #F9DE39",
"p.	c #F8DA30",
"q.	c #F7D724",
"r.	c #FCE318",
"s.	c #FFE806",
"t.	c #FFDC00",
"u.	c #FFD500",
"v.	c #FFDD01",
"w.	c #FFDC2A",
"x.	c #EDC758",
"y.	c #FBE151",
"z.	c #FED70C",
"A.	c #734905",
"B.	c #8B5C16",
"C.	c #5B390C",
"D.	c #8E661F",
"E.	c #F0CB4B",
"F.	c #785113",
"G.	c #603905",
"H.	c #5A3504",
"I.	c #553203",
"J.	c #693B07",
"K.	c #D9A907",
"L.	c #FFEF00",
"M.	c #FFD900",
"N.	c #FFDF03",
"O.	c #FFE700",
"P.	c #DBA603",
"Q.	c #734C0C",
"R.	c #FCD702",
"S.	c #FFEC00",
"T.	c #FFE100",
"U.	c #FBCB01",
"V.	c #744A09",
"W.	c #8F610C",
"X.	c #F9CB02",
"Y.	c #FFE800",
"Z.	c #F6C302",
"`.	c #845709",
" +	c #65410C",
".+	c #BE8D0B",
"++	c #E9B603",
"@+	c #F9C901",
"#+	c #F8C701",
"$+	c #E8B304",
"%+	c #BA8909",
"&+	c #5D3B0A",
"*+	c #693F04",
"=+	c #683F04",
"                                                                ",
"                                                                ",
"                                                                ",
"                                                                ",
"                                                                ",
"                                                                ",
"                                                                ",
"                                                                ",
"                                          . . . .               ",
"                                        + @ . # $ %             ",
"                                    & * = - ; > , ' ) !         ",
"                                    ~ { ] ^ / ( _ : < [ }       ",
"                                  | 1 2 3 4 5 6 7 8 : 9 0       ",
"      a b c c c d e e f f g h i j k l m n o p q r r s r t u     ",
"    v w x y y z A B C D E F G H I J K L M N O P Q R S T U V     ",
"  W X Y Z `  ...+.@.#.$.%.&.*.=.-.3 ;.M >.,.O '.).!.    ~.{.    ",
"    ].^./.A (.` Z _.:.<.[.}.|.1.2.3.4.5.8 6.7.8.9.0.  a.b.c.    ",
"      d.e.f.g.h.i.j.k.l.m.n.o.p.q.r.s.7 7 6.t.u.v.w.x.y.z.A.    ",
"        B.C.    D.E.F.    G.H.I.J.K.L.r 6.Q t.M.M.O N.O.P.      ",
"                                  Q.R.S.Q 7.O M.U U T.U.V.      ",
"                                    W.X.Y.7 6.Q 6.8 Z.`.        ",
"                                       +.+++@+#+$+%+&+          ",
"                                            *+=+                ",
"                                                                ",
"                                                                ",
"                                                                ",
"                                                                ",
"                                                                ",
"                                                                ",
"                                                                ",
"                                                                ",
"                                                                "};
