/* XPM */
static const char *locksm_xpm[]={
"15 15 67 2",
"Qt c None",
".9 c #2b2b2b",
".j c #313131",
".D c #5d5d5d",
".l c #636363",
".c c #6d6d6d",
".o c #373737",
".u c #3c3c3c",
".S c #575757",
".1 c #5c5c5c",
".X c #5d5d5d",
".J c #5e5e5e",
"#. c #7a7a7a",
".d c #a4a4a4",
".5 c #565656",
".v c #626262",
"#a c #6b6b6b",
".m c #7f7f7f",
".# c #a0a0a0",
".8 c #474747",
".4 c #4e4e4e",
".0 c #4f4f4f",
".W c #505050",
".R c #515151",
".C c #5b5b5b",
".I c #636363",
".E c #6d6d6d",
".q c #6e6e6e",
".K c #737373",
".Y c #767676",
".7 c #797979",
".3 c #7a7a7a",
".x c #7c7c7c",
".T c #808080",
".Q c #858585",
".F c #8b8b8b",
".i c #8c8c8c",
".6 c #909090",
".B c #949494",
".U c #969696",
".r c #979797",
".L c #999999",
".n c #9a9a9a",
".w c #9d9d9d",
".t c #9f9f9f",
"## c #a6a6a6",
".P c #a9a9a9",
".s c #aeaeae",
".b c #b1b1b1",
".M c #b7b7b7",
".h c #b9b9b9",
".a c #bbbbbb",
".g c #bcbcbc",
".k c #bebebe",
".p c #c0c0c0",
".Z c #c1c1c1",
".O c #c2c2c2",
".f c #c4c4c4",
".y c #cacaca",
".A c #cbcbcb",
".e c #d3d3d3",
".H c #d6d6d6",
".N c #dedede",
".G c #e5e5e5",
".2 c #eaeaea",
".V c #ececec",
".z c #f1f1f1",
"QtQtQtQtQtQtQtQtQtQtQtQtQtQtQt",
"QtQtQtQtQt.#.a.a.b.cQtQtQtQtQt",
"QtQtQtQt.d.e.f.g.h.i.jQtQtQtQt",
"QtQtQtQt.k.i.lQt.m.n.oQtQtQtQt",
"QtQtQtQt.p.q.r.p.s.t.uQtQtQtQt",
"QtQtQt.v.w.x.y.z.A.B.C.DQtQtQt",
"QtQtQt.E.F.b.z.G.H.b.I.JQtQtQt",
"QtQtQt.K.L.M.N.O.P.Q.R.SQtQtQt",
"QtQtQt.T.U.k.V.y.b.T.W.XQtQtQt",
"QtQtQt.Y.r.Z.V.y.b.x.0.1QtQtQt",
"QtQtQt.Y.B.k.2.y.s.3.4.1QtQtQt",
"QtQtQt.5.6.k.2.y.s.7.8.9QtQtQt",
"QtQtQtQt#.##.A.h.w#a.9QtQtQtQt",
"QtQtQtQtQtQtQtQtQtQtQtQtQtQtQt",
"QtQtQtQtQtQtQtQtQtQtQtQtQtQtQt"};
