/* XPM */
static const char *text_center_xpm[]={
"22 22 57 1",
". c None",
"w c #000000",
"q c #747885",
"d c #c1c5d3",
"c c #c4c8d5",
"y c #c8d2e4",
"b c #c9ceda",
"v c #c9d3e5",
"D c #ccd5e6",
"# c #cdd1dd",
"x c #cdd6e7",
"a c #cfd3de",
"C c #d0d9e9",
"2 c #d2d6e0",
"E c #d2dbea",
"p c #d4dceb",
"K c #d6deed",
"O c #d7dfed",
"B c #d8e0ee",
"W c #dae1ef",
"V c #dae2ef",
"N c #dce3f0",
"J c #dde4f1",
"U c #dee5f1",
"o c #dfe6f2",
"T c #e0e7f3",
"M c #e1e7f3",
"n c #e2e9f4",
"0 c #e3e9f4",
"S c #e4eaf5",
"R c #e5ebf6",
"A c #e6ecf6",
"m c #e7edf7",
"Q c #e9eef8",
"I c #e9eff8",
"P c #eaeff9",
"l c #eaf0f9",
"Z c #ebf0f9",
"u c #ecf1fa",
"z c #edf2fb",
"X c #eef3fb",
"k c #eff4fc",
"t c #f0f4fc",
"Y c #f1f5fd",
"H c #f2f6fe",
"j c #f3f7fe",
"s c #f4f8ff",
"i c #f6f9ff",
"G c #f6faff",
"F c #f7faff",
"1 c #f8fbff",
"h c #f9fcff",
"g c #fbfeff",
"f c #fcffff",
"L c #fdffff",
"r c #feffff",
"e c #ffffff",
".#aaaaaaaaabcdddddddd.",
".#eeeeeeefghijklmnopq.",
".aeeeeeeefghijklmnopq.",
".aeeeeeeerghistumnpvq.",
".aeewwwwwwwwwwwwwwxyq.",
".aeeeeeeerfgszAoBCxDq.",
".aeeeeewwwwwwwwBECCxq.",
".aeeeeghFGsHIJBKpECCq.",
".aeeLwwwwwwwwwwwwKpEq.",
".aerrffgFInMoJNNBOOpq.",
".aeeeLrswwwwwwJNNBBOq.",
".aeeerjPQQRSnnTUNVBBq.",
".aeeeGzwwwwwwwwUoNWWq.",
".aeefXzXPQmSRnnToJNNq.",
".aeewwwwwwwwwwwwwwJNq.",
".aegYkXXZPQmmRSnToJJq.",
".aeGHtwwwwwwwwwwMMoNq.",
".aejYkkXuZQQmmRRMMoJq.",
".agjYkXXwwwwwwR0nMoUq.",
".a1jYkXuZPPQQmASSTooq.",
".a1jYkXuZPPQQmASSTooq.",
".2qqqqqqqqqqqqqqqqqqq."};
