/* XPM */
static const char *text_block_xpm[]={
"22 22 55 1",
". c None",
"w c #000000",
"q c #747885",
"d c #c1c5d3",
"c c #c4c8d5",
"y c #c8d2e4",
"b c #c9ceda",
"v c #c9d3e5",
"D c #ccd5e6",
"# c #cdd1dd",
"x c #cdd6e7",
"a c #cfd3de",
"C c #d0d9e9",
"0 c #d2d6e0",
"K c #d2dbea",
"p c #d4dceb",
"J c #d6deed",
"N c #d7dfed",
"B c #d8e0ee",
"V c #dae1ef",
"U c #dae2ef",
"M c #dce3f0",
"I c #dde4f1",
"T c #dee5f1",
"o c #dfe6f2",
"S c #e0e7f3",
"L c #e1e7f3",
"n c #e2e9f4",
"R c #e4eaf5",
"Q c #e5ebf6",
"A c #e6ecf6",
"m c #e7edf7",
"P c #e9eef8",
"H c #e9eff8",
"O c #eaeff9",
"l c #eaf0f9",
"Y c #ebf0f9",
"u c #ecf1fa",
"z c #edf2fb",
"W c #eef3fb",
"k c #eff4fc",
"t c #f0f4fc",
"X c #f1f5fd",
"G c #f2f6fe",
"j c #f3f7fe",
"s c #f4f8ff",
"i c #f6f9ff",
"F c #f6faff",
"E c #f7faff",
"Z c #f8fbff",
"h c #f9fcff",
"g c #fbfeff",
"f c #fcffff",
"r c #feffff",
"e c #ffffff",
".#aaaaaaaaabcdddddddd.",
".#eeeeeeefghijklmnopq.",
".aeeeeeeefghijklmnopq.",
".aeeeeeeerghistumnpvq.",
".aeewwwwwwwwwwwwwwxyq.",
".aeeeeeeerfgszAoBCxDq.",
".aeewwwwwwwwwwwwwwCxq.",
".aeeeeghEFsGHIBJpKCCq.",
".aeewwwwwwwwwwwwwwpKq.",
".aerrffgEHnLoIMMBNNpq.",
".aeewwwwwwwwwwwwwwBNq.",
".aeeerjOPPQRnnSTMUBBq.",
".aeewwwwwwwwwwwwwwVVq.",
".aeefWzWOPmRQnnSoIMMq.",
".aeewwwwwwwwwwwwwwIMq.",
".aegXkWWYOPmmQRnSoIIq.",
".aeFwwwwwwwwwwwwwwoMq.",
".aejXkkWuYPPmmQQLLoIq.",
".agjwwwwwwwwwwwwwwoTq.",
".aZjXkWuYOOPPmARRSooq.",
".aZjXkWuYOOPPmARRSooq.",
".0qqqqqqqqqqqqqqqqqqq."};
