/* XPM */
static const char *text_color_xpm[]={
"22 22 111 2",
"Qt c None",
".1 c #0080ff",
".0 c #00c000",
"#F c #873c00",
"#u c #8d4400",
"#Q c #904901",
"#P c #924d01",
"#O c #955101",
"#N c #985501",
"#M c #9b5901",
"#L c #9e5e02",
"#K c #a06202",
"#J c #a36602",
"#I c #a66a02",
"#h c #a96e02",
"#e c #ac7303",
".s c #af7703",
"## c #b17b03",
".8 c #b47f03",
".5 c #b78303",
".Y c #ba8804",
".r c #bd8c04",
"#G c #c29404",
".3 c #c8d2e4",
".W c #c9d3e5",
".q c #cba105",
".6 c #ccd5e6",
".2 c #cdd6e7",
".p c #cea505",
".o c #d0a905",
".9 c #d0d9e9",
"#c c #d2dbea",
".n c #d3ad05",
".V c #d4dceb",
".m c #d6b206",
"#R c #d7d3ca",
"#f c #d7dfed",
".l c #d9b606",
".k c #dcba06",
".j c #dfbe06",
"#s c #dfe6f2",
"#r c #e0e7f3",
".i c #e1c206",
".U c #e2e9f4",
".h c #e4c707",
"#H c #e4e0d6",
"#q c #e4eaf5",
"#b c #e6ecf6",
".g c #e7cb07",
".T c #e7edf7",
"#p c #e9eef8",
".f c #eacf07",
"#o c #eaeff9",
"#n c #ebf0f9",
".S c #ecf1fa",
".e c #edd307",
"#m c #eef3fb",
".d c #efd707",
"#l c #eff4fc",
"#k c #f1f5fd",
".c c #f2dc08",
"#S c #f3f0e5",
"#j c #f3f7fe",
".R c #f4f8ff",
".b c #f5e008",
".Q c #f6f9ff",
".a c #f8e408",
"#i c #f8fbff",
".P c #f9fcff",
".# c #fbe808",
".O c #fbfeff",
"#t c #fe7901",
"#E c #fe7c01",
"#D c #fe7f01",
"#C c #fe8201",
"#B c #fe8501",
"#A c #fe8802",
"#z c #fe8b02",
"#y c #fe8e02",
"#x c #fe9102",
"#w c #fe9402",
"#g c #fe9703",
"#d c #fe9a03",
"#a c #fe9d03",
"#. c #fea003",
".7 c #fea303",
".4 c #fea604",
".X c #fea904",
"#v c #feac04",
".L c #feb104",
".K c #feb405",
".J c #feb705",
".I c #feba05",
".H c #febd05",
".G c #fec005",
".F c #fec306",
".E c #fec606",
".D c #fec906",
".C c #fecc06",
".B c #fecf06",
".A c #fed207",
".z c #fed507",
".y c #fed807",
".x c #fedb07",
".w c #fede07",
".v c #fee108",
".u c #fee408",
".t c #feed08",
".N c #feffff",
".Z c #ff0000",
".M c #ffffff",
"Qt.#.a.b.c.d.e.f.g.h.i.j.k.l.m.n.o.p.q.r.sQt",
".#.t.u.v.w.x.y.z.A.B.C.D.E.F.G.H.I.J.K.L.r.s",
".b.v.M.M.M.M.M.M.M.N.O.P.Q.R.P.S.T.U.V.W.X.Y",
".c.w.M.M.Z.Z.Z.Z.M.0.0.0.0.P.1.1.1.1.2.3.4.5",
".d.x.M.M.Z.Z.Z.Z.M.0.0.0.0.P.1.1.1.1.2.6.7.8",
".e.y.M.M.Z.Z.Z.Z.M.0.0.0.0.U.1.1.1.1.9.2#.##",
".f.z.M.M.Z.Z.Z.Z.M.0.0.0.0.U.1.1.1.1.9.9#a.s",
".g.A.M.M.Z.Z.Z.Z.M.0.0.0.0#b.1.1.1.1.V#c#d#e",
".h.B.M.N.Z.Z.Z.Z.M.0.0.0.0#b.1.1.1.1#f.V#g#h",
".r.L#i#j#k#l#m.S#n#o#o#p#p.T#b#q#q#r#s#s#t#u",
".s.r#v.X.4.7#.#a#d#g#w#x#y#z#A#B#C#D#E#t#F#G",
"#H.s.r.Y.5.8##.s#e#h#I#J#K#L#M#N#O#P#Q#u#G#R",
"#H#S#S#S#S#S#S#S#S#S#S#S#S#S#S#S#S#S#S#S#H#R",
"#H#S#S#S#S#S#S#S#S#S#S#S#S#S#S#S#S#S#S#S#H#R",
"#H#S#S#S#S#S#S#S#S#S#S#S#S#S#S#S#S#S#S#S#H#R",
"#H#S#S#S#S#S#S#S#S#S#S#S#S#S#S#S#S#S#S#S#H#R",
"#H#S#S#S#S#S#S#S#S#S#S#S#S#S#S#S#S#S#S#S#H#R",
"#H#S#S#S#S#S#S#S#S#S#S#S#S#S#S#S#S#S#S#S#H#R",
"#H#S#S#S#S#S#S#S#S#S#S#S#S#S#S#S#S#S#S#S#H#R",
"#H#S#S#S#S#S#S#S#S#S#S#S#S#S#S#S#S#S#S#S#H#R",
"#H#H#H#H#H#H#H#H#H#H#H#H#H#H#H#H#H#H#H#H#H#R",
"#R#R#R#R#R#R#R#R#R#R#R#R#R#R#R#R#R#R#R#R#R#R"};
