/* XPM */
static const char *text_bold_xpm[]={
"22 22 160 2",
"Qt c None",
"#o c #000000",
"#A c #18191b",
"#K c #191a1b",
"#Q c #1a1a1b",
"#s c #1a1a1c",
"af c #1a1b1c",
"#z c #343537",
"#r c #353638",
"#p c #373839",
"#F c #4a4c50",
"#R c #4c4e51",
"#9 c #4c4e52",
"#J c #4d4f52",
"#x c #525355",
"#L c #62656b",
"#Y c #64676c",
"#X c #7e8288",
"aC c #873c00",
"aB c #8d4400",
"az c #904901",
"av c #924d01",
"#S c #9498a0",
"as c #955101",
"a. c #959aa2",
"ak c #985501",
"ah c #989ca3",
"ao c #9a9ea4",
"ad c #9b5901",
"ag c #9b9ea5",
"an c #9ca0a6",
"aa c #9e5e02",
"am c #9ea2a7",
"#7 c #a06202",
"#q c #a2a4a9",
"#2 c #a36602",
"#V c #a66a02",
"#g c #a7a9aa",
"#f c #a8aaaa",
"#P c #a96e02",
"#e c #a9aaaa",
"#d c #aaaaaa",
"#I c #ac7303",
"#4 c #adb2bc",
".s c #af7703",
"#w c #b17b03",
"#n c #b47f03",
"ap c #b4b8c0",
"#b c #b78303",
".5 c #ba8804",
".r c #bd8c04",
"#h c #bec1c7",
"aD c #c29404",
"#t c #c8cdd8",
"## c #c8d2e4",
".3 c #c9d3e5",
".q c #cba105",
"#l c #ccd5e6",
"#. c #cdd6e7",
".p c #cea505",
".o c #d0a905",
"#k c #d0d9e9",
"#u c #d2dbea",
".n c #d3ad05",
"ae c #d3d8df",
".9 c #d3dceb",
".X c #d4dceb",
"al c #d5d9e0",
"#G c #d5ddec",
".m c #d6b206",
"#B c #d6deed",
"#N c #d7dfed",
"#j c #d8e0ee",
".l c #d9b606",
"#5 c #dae1ef",
"#0 c #dae2ef",
".k c #dcba06",
"#M c #dce3f0",
"#T c #dde4f1",
"#Z c #dee5f1",
".j c #dfbe06",
".W c #dfe6f2",
"ai c #e0e7f3",
".i c #e1c206",
"aq c #e1e7f3",
".V c #e2e9f4",
"#c c #e3e3e3",
"ax c #e3e9f4",
".h c #e4c707",
"#E c #e4eaf5",
"#W c #e5ebf6",
"#i c #e6ecf6",
".g c #e7cb07",
".U c #e7edf7",
"ab c #e9eef8",
".f c #eacf07",
"aw c #eaeff9",
".T c #eaf0f9",
"at c #ebf0f9",
".2 c #ecf1fa",
".e c #edd307",
".8 c #edf2fb",
"#8 c #eef3fb",
".d c #efd707",
".S c #eff4fc",
".1 c #f0f4fc",
".7 c #f1f5fd",
".c c #f2dc08",
"#y c #f2f6fe",
".R c #f3f7fe",
".0 c #f4f8ff",
".b c #f5e008",
".Q c #f6f9ff",
"#3 c #f6faff",
".a c #f8e408",
".6 c #f8fbff",
".P c #f9fcff",
".# c #fbe808",
".O c #fbfeff",
".N c #fcffff",
"#D c #fdffff",
"aA c #fe7901",
"ay c #fe7c01",
"au c #fe7f01",
"ar c #fe8201",
"aj c #fe8501",
"ac c #fe8802",
"a# c #fe8b02",
"#6 c #fe8e02",
"#1 c #fe9102",
"#U c #fe9402",
"#O c #fe9703",
"#H c #fe9a03",
"#C c #fe9d03",
"#v c #fea003",
"#m c #fea303",
"#a c #fea604",
".4 c #fea904",
".Y c #feac04",
".L c #feb104",
".K c #feb405",
".J c #feb705",
".I c #feba05",
".H c #febd05",
".G c #fec005",
".F c #fec306",
".E c #fec606",
".D c #fec906",
".C c #fecc06",
".B c #fecf06",
".A c #fed207",
".z c #fed507",
".y c #fed807",
".x c #fedb07",
".w c #fede07",
".v c #fee108",
".u c #fee408",
".t c #feed08",
".Z c #feffff",
".M c #ffffff",
"Qt.#.a.b.c.d.e.f.g.h.i.j.k.l.m.n.o.p.q.r.sQt",
".#.t.u.v.w.x.y.z.A.B.C.D.E.F.G.H.I.J.K.L.r.s",
".a.u.M.M.M.M.M.M.M.N.O.P.Q.R.S.T.U.V.W.X.Y.r",
".b.v.M.M.M.M.M.M.M.Z.O.P.Q.0.1.2.U.V.X.3.4.5",
".c.w.M.M.M.M.M.M.M.Z.N.P.6.0.7.8.W.9#.###a#b",
".d.x.M.M.M#c#d#d#d#e#f#g#h.8#i.W#j#k#.#l#m#n",
".e.y.M.M.M.M#c#o#o#p#q#r#o#s#t#j#u#k#k#.#v#w",
".f.z.M.M.M.M.O#o#o#x.0#y#z#o#A#B.X#u#k#k#C.s",
".g.A.M.M#D.N.O#o#o#x.7#E#F#o#o#j#G#B.X#u#H#I",
".h.B.M.Z.Z.N.N#o#o#J.V#t#K#o#L#M#j#N#N.X#O#P",
".i.C.M.M.M#D.Z#o#o#Q#R#o#K#S#T#M#M#j#j#N#U#V",
".j.D.M.M.M.Z.R#o#o#J#W#X#o#o#Y#Z#M#0#j#j#1#2",
".k.E.M.M.M#3.8#o#o#J#W#E#R#o#o#4.W#M#5#5#6#7",
".l.F.M.M.N#8.8#o#o#J.U#E#9#o#oa..W#T#M#Ma#aa",
".m.G.M.M.R.S#8#o#o#Jab.U#Q#o#o#t.W.W#T#Macad",
".n.H.M.O.7.Sae#o#oafag#J#o#Qah.Vai.W#T#Tajak",
".o.I.M#3#yalamamanagagaoap#i#W#Eaqaq.W#Maras",
".p.J.M.R.7.S.S#8.2atabab.U.U#W#Waqaq.W#Tauav",
".q.K.O.R.7.S#8#8.2awawab.U.U#Wax.Vaq.W#Zayaz",
".r.L.6.R.7.S#8.2atawawabab.U#i#E#Eai.W.WaAaB",
".s.r.Y.4#a#m#v#C#H#O#U#1#6a#acajarauayaAaCaD",
"Qt.s.r.5#b#n#w.s#I#P#V#2#7aaadakasavazaBaDQt"};
