/* XPM */
static const char *text_right_xpm[]={
"22 22 49 1",
". c None",
"x c #2d2d2d",
"m c #747885",
"d c #c1c5d3",
"c c #c4c8d5",
"D c #c8ccd9",
"C c #c9cdda",
"b c #c9ceda",
"F c #cacfdb",
"E c #ccd0dc",
"# c #cdd1dd",
"B c #cfd2de",
"a c #cfd3de",
"U c #d2d6e0",
"I c #d3d6e2",
"H c #d4d7e3",
"G c #d5d9e3",
"K c #d6dae4",
"J c #d9dce6",
"l c #dbdee8",
"L c #dcdfe9",
"k c #dfe2eb",
"q c #e0e3ec",
"M c #e1e4ed",
"w c #e3e6ee",
"p c #e5e7f0",
"y c #e6e8f0",
"j c #e7e9f1",
"P c #e8eaf2",
"T c #eaecf3",
"v c #eaedf3",
"u c #ebedf4",
"O c #edeff6",
"A c #eef0f7",
"N c #f0f2f8",
"t c #f1f2f8",
"o c #f1f3f8",
"S c #f2f4f9",
"s c #f3f5f9",
"R c #f5f6fa",
"i c #f5f7fa",
"Q c #f6f8fa",
"z c #f7f8fb",
"n c #f8f9fb",
"h c #fafbfc",
"r c #fbfcfd",
"g c #fcfcfd",
"f c #fdfefe",
"e c #ffffff",
"......................",
"..#aaaaaabcdddddddd...",
"..aeeeeefeefghijklm...",
"..aeeeeeeeeeniopqlm...",
"..aeeeeeernstuvjpwm...",
"..aeeeexxxxxxxxxjym...",
"..aeeeeeefhzAAuBCDm...",
"..aeeeeeefrzxxxxEFm...",
"..aeeeeeeghijklGHIm...",
"..aeeexxxxxxxxxxJKm...",
"..aeeeeeftuvjpwqkLm...",
"..aeeeefiAxxxxxxMkm...",
"..aefffisNNOuPjpwMm...",
"..aeQQQiRsoxxxxxppm...",
"..aezzziiSotOuTjywm...",
"..aezxxxxxxxxxxxjpm...",
"..aezzzQRsooOOuPjpm...",
"..aezzzQRsxxxxxxjpm...",
"..aezzzQisooOOujjpm...",
"..aeiiiRsootOuvjywm...",
"..Ummmmmmmmmmmmmmmm...",
"......................"};
