/* XPM */
static const char *text_italic_xpm[]={
"22 22 151 2",
"Qt c None",
"#m c #000000",
"ae c #1a1a1c",
"#7 c #323436",
"#Q c #4b4d51",
"#U c #4c4e52",
"#n c #4d4f52",
"ad c #4e4f53",
"#l c #4f5154",
"#d c #515255",
"a# c #67696e",
"a. c #686a6e",
"#I c #7d8187",
"aa c #808388",
"at c #873c00",
"as c #8d4400",
"aq c #904901",
"ao c #924d01",
"am c #955101",
"ah c #985501",
"#P c #989ca3",
"ac c #9b5901",
"ak c #9b9ea5",
"#9 c #9e5e02",
"#4 c #a06202",
"#Y c #a36602",
"#S c #a66a02",
"#M c #a96e02",
"#G c #ac7303",
".s c #af7703",
"#r c #b17b03",
"#k c #b47f03",
"#6 c #b5b9c1",
"#b c #b78303",
".5 c #ba8804",
".r c #bd8c04",
"au c #c29404",
"#v c #c4cad6",
"## c #c8d2e4",
".3 c #c9d3e5",
"#0 c #cad0da",
".q c #cba105",
"#i c #ccd5e6",
"af c #cdd2db",
"#. c #cdd6e7",
".p c #cea505",
"aj c #cfd3dc",
"#H c #cfd4dc",
".o c #d0a905",
"#h c #d0d9e9",
"#e c #d2d7df",
"#p c #d2dbea",
".n c #d3ad05",
".9 c #d3dceb",
".X c #d4dceb",
"#E c #d5ddec",
".m c #d6b206",
"#w c #d6deed",
"#u c #d7dae2",
"#K c #d7dfed",
"#g c #d8e0ee",
".l c #d9b606",
"#2 c #dae1ef",
"#W c #dae2ef",
".k c #dcba06",
"#D c #dce3f0",
"#J c #dde4f1",
"#C c #dee5f1",
".j c #dfbe06",
"#c c #dfe2e3",
".W c #dfe6f2",
"#V c #e0e7f3",
".i c #e1c206",
"#o c #e1e7f3",
".V c #e2e9f4",
"#1 c #e3e9f4",
".h c #e4c707",
"#B c #e4eaf5",
"#O c #e5ebf6",
"#f c #e6ecf6",
".g c #e7cb07",
".U c #e7edf7",
"#N c #e9eef8",
".f c #eacf07",
"#T c #eaeff9",
".T c #eaf0f9",
"#Z c #ebf0f9",
".2 c #ecf1fa",
".e c #edd307",
".8 c #edf2fb",
"#5 c #eef3fb",
".d c #efd707",
".S c #eff4fc",
".1 c #f0f4fc",
".7 c #f1f5fd",
".c c #f2dc08",
"ai c #f2f6fe",
".R c #f3f7fe",
".0 c #f4f8ff",
".b c #f5e008",
".Q c #f6f9ff",
"#t c #f6faff",
"#s c #f7faff",
"#A c #f7fbff",
".a c #f8e408",
".6 c #f8fbff",
".P c #f9fcff",
"#z c #fafdff",
".# c #fbe808",
".O c #fbfeff",
".N c #fcffff",
"#y c #fdffff",
"ar c #fe7901",
"ap c #fe7c01",
"an c #fe7f01",
"al c #fe8201",
"ag c #fe8501",
"ab c #fe8802",
"#8 c #fe8b02",
"#3 c #fe8e02",
"#X c #fe9102",
"#R c #fe9402",
"#L c #fe9703",
"#F c #fe9a03",
"#x c #fe9d03",
"#q c #fea003",
"#j c #fea303",
"#a c #fea604",
".4 c #fea904",
".Y c #feac04",
".L c #feb104",
".K c #feb405",
".J c #feb705",
".I c #feba05",
".H c #febd05",
".G c #fec005",
".F c #fec306",
".E c #fec606",
".D c #fec906",
".C c #fecc06",
".B c #fecf06",
".A c #fed207",
".z c #fed507",
".y c #fed807",
".x c #fedb07",
".w c #fede07",
".v c #fee108",
".u c #fee408",
".t c #feed08",
".Z c #feffff",
".M c #ffffff",
"Qt.#.a.b.c.d.e.f.g.h.i.j.k.l.m.n.o.p.q.r.sQt",
".#.t.u.v.w.x.y.z.A.B.C.D.E.F.G.H.I.J.K.L.r.s",
".a.u.M.M.M.M.M.M.M.N.O.P.Q.R.S.T.U.V.W.X.Y.r",
".b.v.M.M.M.M.M.M.M.Z.O.P.Q.0.1.2.U.V.X.3.4.5",
".c.w.M.M.M.M.M.M.M.Z.N.P.6.0.7.8.W.9#.###a#b",
".d.x.M.M.M.M.M.M.M.Z.N#c#d#e#f.W#g#h#.#i#j#k",
".e.y.M.M.M.M.M.Z.O.6.R#l#m#n#o#g#p#h#h#.#q#r",
".f.z.M.M.M.M.O.P#s#t.0#u#n#v#g#w.X#p#h#h#x.s",
".g.A.M.M#y.N.O#z.P#A.7#B#C#D#D#g#E#w.X#p#F#G",
".h.B.M.Z.Z.N.N.O#s#H#I#m#m#J#D#D#g#K#K.X#L#M",
".i.C.M.M.M#y.Z.0#N#O#P#m#Q#C#J#D#D#g#g#K#R#S",
".j.D.M.M.M.Z.R#T#N#N#U#m#I.V#V#C#D#W#g#g#X#Y",
".k.E.M.M.M#t.8#Z#T#N#m#m#0#1#o#C.W#D#2#2#3#4",
".l.F.M.M.N#5.8#5#T#6#m#7#O.V.V#V.W#J#D#D#8#9",
".m.G.M.M.R.S#5.8.2a.#ma#aa#O#1#o.W.W#J#Dabac",
".n.H.M.O.7.S#5#5#Zad#maeaf#O#B.V#V.W#J#Jagah",
".o.I.M#tai.1#5#5#Zajak.U.U#f#O#B#o#o.W#Dalam",
".p.J.M.R.7.S.S#5.2#Z#N#N.U.U#O#O#o#o.W#Janao",
".q.K.O.R.7.S#5#5.2#T#T#N.U.U#O#1.V#o.W#Capaq",
".r.L.6.R.7.S#5.2#Z#T#T#N#N.U#f#B#B#V.W.Waras",
".s.r.Y.4#a#j#q#x#F#L#R#X#3#8abagalanaparatau",
"Qt.s.r.5#b#k#r.s#G#M#S#Y#4#9acahamaoaqasauQt"};
