/* XPM */
static const char *text_under_xpm[]={
"22 22 161 2",
"Qt c None",
".7 c #000000",
"ac c #191a1b",
"ah c #1a1a1b",
"a# c #1a1b1c",
"#z c #474a4f",
"#p c #484a4f",
"#H c #494b50",
"#U c #494c50",
"#g c #4a4c50",
"#Y c #4a4d51",
"#o c #4b4d51",
"#f c #4c4e52",
"ag c #4e5053",
"#. c #4f5053",
"a. c #4f5153",
".9 c #505154",
"au c #515151",
"#5 c #7b7f86",
"aD c #873c00",
"aC c #8d4400",
"az c #904901",
"aw c #924d01",
"at c #955101",
"aq c #985501",
"am c #9a9ea4",
"ak c #9b5901",
"ax c #9b9999",
"aa c #9b9ea5",
"#3 c #9c9fa6",
"af c #9e5e02",
"#8 c #a06202",
"#X c #a2a4a9",
"#1 c #a36602",
"#W c #a66a02",
"#t c #a7a9aa",
"#M c #a8aaaa",
"#Q c #a96e02",
"#R c #a9aaaa",
".6 c #aaaaaa",
"#L c #ac7303",
".s c #af7703",
"#s c #b17b03",
"ai c #b1b5be",
"ab c #b2b7bf",
"#l c #b47f03",
"an c #b4b8c0",
"#d c #b78303",
".5 c #ba8804",
".r c #bd8c04",
"aE c #c29404",
"ad c #c7cdd8",
"#b c #c8d2e4",
".3 c #c9d3e5",
"#4 c #cacfd9",
".q c #cba105",
"#j c #ccd5e6",
"#a c #cdd6e7",
".p c #cea505",
".o c #d0a905",
"al c #d0d4dd",
"#i c #d0d9e9",
"#2 c #d2d7df",
"#q c #d2dbea",
".n c #d3ad05",
"## c #d3dceb",
".X c #d4dceb",
"#I c #d5ddec",
".m c #d6b206",
"#J c #d6deed",
"#O c #d7dfed",
"#h c #d8e0ee",
".l c #d9b606",
"#6 c #dae1ef",
"#Z c #dae2ef",
".k c #dcba06",
"#G c #dce3f0",
"#y c #dde4f1",
"#F c #dee5f1",
".j c #dfbe06",
".W c #dfe6f2",
"ao c #e0e7f3",
".i c #e1c206",
"#N c #e1e7f3",
".V c #e2e9f4",
".h c #e4c707",
"#E c #e4eaf5",
"#T c #e5ebf6",
"ar c #e6ecf6",
".g c #e7cb07",
".U c #e7edf7",
"#n c #e8edf7",
"#S c #e9eef8",
"#x c #e9eff8",
".f c #eacf07",
"aA c #eaeff9",
".T c #eaf0f9",
"#m c #ebf0f9",
".2 c #ecf1fa",
".e c #edd307",
"#e c #edf2fb",
"#9 c #eef3fb",
".d c #efd707",
".S c #eff4fc",
".1 c #f0f4fc",
"#D c #f1f5fd",
".c c #f2dc08",
"#w c #f2f6fe",
".R c #f3f7fe",
".0 c #f4f8ff",
".b c #f5e008",
".Q c #f6f9ff",
"#v c #f6faff",
"#u c #f7faff",
"#C c #f7fbff",
".a c #f8e408",
".8 c #f8fbff",
".P c #f9fcff",
".# c #fbe808",
".O c #fbfeff",
".N c #fcffff",
"#B c #fdffff",
"aB c #fe7901",
"ay c #fe7c01",
"av c #fe7f01",
"as c #fe8201",
"ap c #fe8501",
"aj c #fe8802",
"ae c #fe8b02",
"#7 c #fe8e02",
"#0 c #fe9102",
"#V c #fe9402",
"#P c #fe9703",
"#K c #fe9a03",
"#A c #fe9d03",
"#r c #fea003",
"#k c #fea303",
"#c c #fea604",
".4 c #fea904",
".Y c #feac04",
".L c #feb104",
".K c #feb405",
".J c #feb705",
".I c #feba05",
".H c #febd05",
".G c #fec005",
".F c #fec306",
".E c #fec606",
".D c #fec906",
".C c #fecc06",
".B c #fecf06",
".A c #fed207",
".z c #fed507",
".y c #fed807",
".x c #fedb07",
".w c #fede07",
".v c #fee108",
".u c #fee408",
".t c #feed08",
".Z c #feffff",
".M c #ffffff",
"Qt.#.a.b.c.d.e.f.g.h.i.j.k.l.m.n.o.p.q.r.sQt",
".#.t.u.v.w.x.y.z.A.B.C.D.E.F.G.H.I.J.K.L.r.s",
".a.u.M.M.M.M.M.M.M.N.O.P.Q.R.S.T.U.V.W.X.Y.r",
".b.v.M.M.M.M.M.M.M.Z.O.P.Q.0.1.2.U.V.X.3.4.5",
".c.w.M.M.M.M.6.7.M.Z.N.P.8.0.9#..W###a#b#c#d",
".d.x.M.M.M.M.6.7.M.Z.N.O.0#e#f#g#h#i#a#j#k#l",
".e.y.M.M.M.M.6.7.O.8.R.S#m#n#o#p#q#i#i#a#r#s",
".f.z.M.M.M.M#t.7#u#v.0#w#x#y#p#z.X#q#i#i#A.s",
".g.A.M.M#B.N#t.7.P#C#D#E#F#G#H#p#I#J.X#q#K#L",
".h.B.M.Z.Z.N#M.7#u#x.V#N.W#y#H#H#h#O#O.X#P#Q",
".i.C.M.M.M#B#R.7#S#T#E.V#N#F#U#H#G#h#h#O#V#W",
".j.D.M.M.M.Z#X.7#S#S#T#E.V.V#Y#g#G#Z#h#h#0#1",
".k.E.M.M.M#v#2.7#3#S#T#E#E#4.7#5.W#G#6#6#7#8",
".l.F.M.M.N#9#ea.a#aa.U#Eab#oacad.W#y#G#Gaeaf",
".m.G.M.M.R.S#9#2ag.7.7.7.7ahai#N.W.W#y#Gajak",
".n.H.M.O#D.S#9#9#malaaaman#T#E.Vao.W#y#yapaq",
".o.I.M#v#w.1#9#9#m#S#S.U.Uar#T#E#N#N.W#Gasat",
".p.J.M.R#Dauauauauauauauauauauauau#N.W#yavaw",
".q.K.O.R#Daxaxaxaxaxaxaxaxaxaxaxax#N.W#Fayaz",
".r.L.8.R#D.S#9.2#maAaA#S#S.Uar#E#Eao.W.WaBaC",
".s.r.Y.4#c#k#r#A#K#P#V#0#7aeajapasavayaBaDaE",
"Qt.s.r.5#d#l#s.s#L#Q#W#1#8afakaqatawazaCaEQt"};
