/* XPM */
static const char *text_left_xpm[]={
"22 22 49 1",
". c None",
"x c #2d2d2d",
"m c #747885",
"d c #c1c5d3",
"c c #c4c8d5",
"E c #c8ccd9",
"D c #c9cdda",
"b c #c9ceda",
"G c #cacfdb",
"F c #ccd0dc",
"# c #cdd1dd",
"C c #cfd2de",
"a c #cfd3de",
"U c #d2d6e0",
"J c #d3d6e2",
"I c #d4d7e3",
"H c #d5d9e3",
"L c #d6dae4",
"K c #d9dce6",
"l c #dbdee8",
"M c #dcdfe9",
"k c #dfe2eb",
"q c #e0e3ec",
"N c #e1e4ed",
"w c #e3e6ee",
"p c #e5e7f0",
"A c #e6e8f0",
"j c #e7e9f1",
"P c #e8eaf2",
"S c #eaecf3",
"v c #eaedf3",
"u c #ebedf4",
"z c #edeff6",
"y c #eef0f7",
"O c #f0f2f8",
"t c #f1f2f8",
"o c #f1f3f8",
"R c #f2f4f9",
"s c #f3f5f9",
"T c #f5f6fa",
"i c #f5f7fa",
"Q c #f6f8fa",
"B c #f7f8fb",
"n c #f8f9fb",
"h c #fafbfc",
"r c #fbfcfd",
"g c #fcfcfd",
"f c #fdfefe",
"e c #ffffff",
"......................",
"..#aaaaaabcdddddddd...",
"..aeeeeefeefghijklm...",
"..aeeeeeeeeeniopqlm...",
"..aeeeeeernstuvjpwm...",
"..aeexxxxxxiyzujjAm...",
"..aeeeeeefhByyuCDEm...",
"..aeexxxxxxxxxxxFGm...",
"..aeeeeeeghijklHIJm...",
"..aeexxxxxiopqlKKLm...",
"..aeeeeeftuvjpwqkMm...",
"..aeexxxxxxujjANNkm...",
"..aefffisOOzuPjpwNm...",
"..aeQxxxxxxxxxxjppm...",
"..aeBBBiiRotzuSjAwm...",
"..aeBxxxxsoozzuPjpm...",
"..aeBBBQTsoozzuPjpm...",
"..aeBxxxxxxxxxuPjpm...",
"..aeBBBQisoozzujjpm...",
"..aeiiiTsootzuvjAwm...",
"..Ummmmmmmmmmmmmmmm...",
"......................"};
