/* XPM */
static const char *unlocksm_xpm[]={
"15 15 90 2",
"Qt c None",
".j c #313131",
".D c #5d5d5d",
".l c #636363",
".c c #6d6d6d",
"#u c #000000",
".o c #373737",
".u c #3c3c3c",
".S c #575757",
".J c #5e5e5e",
"#m c #7a7a7a",
".d c #a4a4a4",
"#e c #565656",
".v c #626262",
".m c #7f7f7f",
".# c #a0a0a0",
"#t c #c92119",
".8 c #e13d27",
".0 c #f4674b",
".R c #515151",
".C c #5b5b5b",
".I c #636363",
".E c #6d6d6d",
".q c #6e6e6e",
".K c #737373",
".1 c #767676",
".x c #7c7c7c",
".T c #808080",
".Q c #858585",
".F c #8b8b8b",
".i c #8c8c8c",
"#f c #909090",
".B c #949494",
".U c #969696",
".r c #979797",
".L c #999999",
".n c #9a9a9a",
".w c #9d9d9d",
".t c #9f9f9f",
"#n c #a6a6a6",
".P c #a9a9a9",
".s c #aeaeae",
".b c #b1b1b1",
".M c #b7b7b7",
".h c #b9b9b9",
"#v c #ba4730",
".a c #bbbbbb",
".g c #bcbcbc",
".k c #bebebe",
".W c #bfbfbf",
".p c #c0c0c0",
".2 c #c1c1c1",
".O c #c2c2c2",
".f c #c4c4c4",
".4 c #c81916",
".y c #cacaca",
".5 c #cb1e0f",
".A c #cbcbcb",
"#w c #d21d0e",
"#d c #d32717",
"#h c #d32919",
"#x c #d32c20",
".X c #d37169",
".e c #d3d3d3",
"#l c #d43224",
"#o c #d56f5c",
".6 c #d6270b",
".H c #d6d6d6",
"## c #d75b57",
".3 c #dd7c74",
".N c #dedede",
".Y c #e35244",
"#. c #e35850",
".7 c #e52e0a",
"#g c #e55c50",
".G c #e5e5e5",
".Z c #e85a44",
".9 c #eaeaea",
"#p c #ec624a",
".V c #ececec",
"#q c #f1654e",
"#c c #f1745c",
".z c #f1f1f1",
"#k c #f25d42",
"#a c #f3ccc7",
"#r c #f47763",
"#b c #f5ccc6",
"#s c #f68a79",
"#i c #f6ccc6",
"#j c #fad1ca",
"QtQtQtQtQtQtQtQtQtQtQtQtQtQtQt",
"QtQtQtQtQt.#.a.a.b.cQtQtQtQtQt",
"QtQtQtQt.d.e.f.g.h.i.jQtQtQtQt",
"QtQtQtQt.k.i.lQt.m.n.oQtQtQtQt",
"QtQtQtQt.p.q.r.p.s.t.uQtQtQtQt",
"QtQtQt.v.w.x.y.z.A.B.C.DQtQtQt",
"QtQtQt.E.F.b.z.G.H.b.I.JQtQtQt",
"QtQtQt.K.L.M.N.O.P.Q.R.SQtQtQt",
"QtQtQt.T.U.k.V.W.X.Y.Z.0QtQtQt",
"QtQtQt.1.r.2.V.3.4.5.6.7.8QtQt",
"QtQtQt.1.B.k.9#.###a#b#c#dQtQt",
"QtQtQt#e#f.k.9#g#h#i#j#k#lQtQt",
"QtQtQtQt#m#n.A#o#p#q#r#s#tQtQt",
"QtQtQtQtQtQtQt#u#v#w#x#tQtQtQt",
"QtQtQtQtQtQtQtQtQtQtQtQtQtQtQt"};
